<?xml version="1.0" standalone="no"?>
<!DOCTYPE svg PUBLIC "-//W3C//DTD SVG 20010904//EN"
 "http://www.w3.org/TR/2001/REC-SVG-20010904/DTD/svg10.dtd">
<svg version="1.0" xmlns="http://www.w3.org/2000/svg"
 width="4048.000000pt" height="1240.000000pt" viewBox="0 0 4048.000000 1240.000000"
 preserveAspectRatio="xMidYMid meet">

<g transform="translate(0.000000,1240.000000) scale(0.100000,-0.100000)"
fill="#000000" stroke="none">
<path d="M0 6200 l0 -6200 4629 0 c2693 0 4632 4 4635 9 10 16 78 18 150 5 98
-18 26805 -20 26855 -3 24 9 35 9 44 0 8 -8 301 -11 1078 -11 l1067 0 14 23
c9 12 27 28 41 36 22 12 28 11 56 -10 17 -12 31 -29 31 -36 0 -11 171 -13 940
-13 l940 0 0 3088 0 3089 -547 6 c-302 4 -807 7 -1123 7 -505 0 -578 -2 -598
-16 -27 -18 -28 -38 -4 -56 10 -7 27 -25 38 -40 12 -15 52 -52 90 -83 103 -84
144 -124 144 -143 0 -5 7 -15 16 -23 22 -18 50 -77 58 -121 4 -22 21 -53 41
-75 19 -21 35 -42 35 -48 0 -5 17 -35 38 -65 27 -39 41 -71 46 -107 8 -62 -7
-78 -28 -31 -9 18 -19 40 -24 48 -5 8 -22 42 -38 75 -16 33 -32 61 -36 63 -4
2 -13 22 -19 44 -11 42 -12 45 -54 92 -14 16 -25 33 -25 38 0 13 -118 157
-155 188 -16 14 -41 36 -57 50 -42 39 -57 50 -64 50 -4 0 -22 11 -40 25 -18
14 -35 25 -39 25 -14 0 -65 45 -65 57 0 7 -7 13 -15 13 -9 0 -29 10 -45 21
-18 14 -37 20 -50 16 -12 -3 -33 -1 -46 5 -15 7 -35 8 -55 2 -27 -8 -42 -4
-97 23 -35 18 -72 33 -81 33 -9 0 -21 4 -27 10 -14 14 -219 98 -294 120 -36
11 -86 27 -111 35 -26 8 -63 15 -82 15 -20 0 -42 6 -49 14 -18 17 -108 30
-127 17 -10 -6 2 -14 43 -30 31 -11 60 -21 65 -21 4 0 16 -9 26 -20 10 -11 25
-20 34 -20 9 0 33 -11 53 -25 20 -14 40 -25 43 -25 37 0 316 -177 405 -257 27
-24 64 -67 84 -96 20 -28 52 -73 70 -99 22 -31 32 -55 29 -68 -8 -29 -24 -25
-73 18 -24 20 -87 75 -141 122 -175 152 -194 167 -226 184 -18 9 -33 20 -33
24 0 27 -299 167 -333 156 -11 -3 -23 -1 -27 6 -16 25 -187 45 -345 39 -33 -1
-71 -1 -85 -1 -14 1 -43 1 -65 1 -46 -2 -48 -2 -140 5 -38 3 -80 11 -93 18
-18 9 -27 9 -43 0 -15 -10 -23 -9 -39 0 -16 10 -24 10 -40 0 -14 -8 -26 -9
-38 -3 -9 5 -78 9 -152 9 -75 0 -150 3 -168 7 -24 5 -33 3 -38 -9 -7 -17 -39
-22 -48 -7 -3 5 -59 14 -123 20 -65 7 -147 17 -183 23 -36 5 -94 13 -130 17
-63 7 -176 39 -233 67 -16 8 -36 14 -44 14 -8 0 -32 9 -52 19 -20 11 -65 33
-101 50 -94 45 -169 89 -220 131 -25 20 -67 50 -95 65 -27 16 -54 35 -58 42
-4 7 -13 13 -20 13 -15 0 -207 170 -262 232 -44 49 -58 65 -125 148 -25 31
-51 62 -58 70 -16 20 -63 82 -82 110 -8 12 -27 38 -42 57 -15 19 -36 54 -48
78 -12 24 -28 49 -36 55 -7 7 -14 18 -14 25 0 7 -6 18 -14 24 -8 7 -18 26 -21
42 -4 16 -14 35 -24 41 -10 7 -21 28 -24 47 -4 18 -17 50 -29 69 -20 32 -22
33 -29 15 -8 -22 6 -100 21 -118 5 -6 14 -33 20 -60 18 -72 144 -343 201 -430
40 -61 143 -179 264 -302 49 -50 117 -121 150 -158 33 -36 74 -73 90 -82 17
-8 44 -28 60 -43 17 -16 65 -40 110 -55 44 -15 91 -36 104 -46 13 -11 32 -19
41 -19 26 0 131 -41 157 -61 13 -9 40 -20 60 -24 21 -4 50 -13 65 -21 15 -8
35 -14 45 -14 10 0 31 -7 47 -15 28 -15 257 -65 295 -65 10 0 31 -7 47 -14 29
-15 103 -21 403 -31 79 -3 160 -9 180 -14 20 -5 155 -12 301 -16 270 -7 323
-10 351 -25 8 -5 62 -12 120 -16 57 -3 117 -13 133 -20 16 -8 55 -17 85 -20
31 -4 70 -14 86 -24 17 -10 47 -20 68 -23 20 -3 44 -13 53 -21 8 -9 24 -16 33
-16 10 0 30 -9 44 -20 14 -11 29 -20 34 -20 4 0 35 -19 68 -42 226 -156 472
-413 627 -654 52 -80 56 -86 89 -149 17 -32 37 -68 45 -79 8 -11 14 -28 14
-37 0 -10 16 -48 35 -85 19 -37 38 -86 41 -108 3 -23 11 -72 19 -111 28 -146
38 -279 42 -580 3 -170 2 -307 -2 -303 -4 3 -8 60 -9 125 -3 128 -5 141 -23
161 -9 9 -13 50 -14 120 -2 210 -37 459 -74 524 -8 14 -15 34 -15 43 0 9 -9
28 -20 42 -11 14 -20 31 -20 38 0 12 -45 101 -86 170 -27 46 -44 82 -44 96 0
5 -4 9 -8 9 -5 0 -24 24 -42 52 -18 29 -41 60 -49 69 -9 9 -36 40 -61 69 -46
53 -72 83 -115 133 -14 15 -29 27 -34 27 -5 0 -13 9 -16 21 -5 16 -12 19 -32
14 -14 -3 -31 -1 -39 6 -24 20 -27 2 -5 -29 12 -17 21 -33 21 -37 0 -4 15 -22
34 -40 47 -44 119 -134 134 -168 6 -15 19 -30 27 -33 8 -4 15 -15 15 -25 0
-22 34 -92 61 -128 11 -13 19 -33 19 -43 0 -11 9 -33 21 -49 22 -32 59 -127
59 -156 0 -10 7 -27 15 -37 8 -11 15 -29 15 -40 1 -12 9 -39 20 -61 11 -22 20
-60 20 -85 0 -25 7 -74 16 -110 23 -96 33 -384 17 -495 -22 -156 -38 -232 -50
-246 -6 -8 -16 -34 -23 -59 -7 -25 -17 -52 -24 -60 -7 -8 -25 -40 -40 -70 -15
-30 -41 -75 -57 -100 -16 -25 -33 -55 -39 -68 -10 -24 -47 -78 -68 -101 -7 -7
-38 -45 -68 -83 -105 -131 -274 -290 -414 -390 -67 -47 -218 -123 -345 -173
-38 -15 -74 -31 -80 -35 -5 -4 -24 -11 -42 -14 -17 -4 -37 -14 -44 -22 -6 -8
-21 -14 -34 -14 -12 0 -44 -7 -71 -15 -138 -44 -222 -66 -263 -71 -25 -4 -68
-12 -96 -19 -27 -8 -81 -16 -120 -20 -38 -4 -99 -13 -135 -20 -36 -8 -110 -16
-165 -20 -55 -3 -165 -12 -245 -20 -212 -20 -387 -27 -407 -16 -10 5 -92 12
-183 16 -91 4 -187 11 -215 16 -27 5 -109 14 -181 18 -98 7 -143 15 -177 30
-25 12 -54 21 -64 21 -10 0 -31 9 -48 20 -16 11 -36 20 -43 20 -8 0 -26 8 -40
18 -26 18 -81 39 -172 66 -130 39 -241 100 -312 171 -122 121 -220 229 -229
252 -5 13 -14 23 -21 23 -7 0 -26 20 -41 45 -16 25 -33 43 -38 39 -16 -9 -10
-30 17 -55 14 -13 32 -38 40 -55 8 -17 25 -42 37 -55 12 -13 33 -40 47 -60 36
-52 259 -286 295 -309 16 -11 40 -27 52 -36 24 -17 291 -97 364 -109 24 -4 66
-13 93 -21 27 -8 65 -14 85 -14 19 0 43 -8 53 -17 10 -9 51 -22 91 -29 40 -7
97 -17 127 -22 64 -12 195 -5 228 11 17 8 34 8 65 -1 23 -7 53 -15 66 -18 13
-3 31 -9 40 -13 9 -5 20 -9 24 -9 5 0 11 -3 14 -5 22 -23 -697 -20 -752 2 -16
7 -68 15 -115 17 -96 6 -244 37 -308 65 -23 11 -50 19 -58 19 -9 0 -27 9 -41
20 -14 11 -36 20 -48 20 -12 0 -34 9 -48 20 -14 11 -30 20 -35 20 -5 0 -15 6
-21 14 -7 8 -25 18 -41 21 -15 3 -36 15 -46 26 -9 10 -21 19 -25 19 -11 0 -69
41 -103 73 l-29 27 32 0 c17 0 34 6 37 13 2 7 -20 39 -49 70 -89 95 -173 188
-228 252 -28 33 -63 74 -78 90 -15 17 -57 68 -94 115 -37 47 -76 94 -86 105
-16 18 -70 95 -96 136 -15 25 -128 173 -141 184 -6 6 -43 53 -82 105 -103 138
-120 149 -169 110 -14 -11 -32 -20 -39 -20 -11 0 -12 -12 -8 -49 7 -62 -9 -73
-26 -20 -8 23 -20 43 -27 46 -7 3 -13 16 -13 29 0 31 -20 74 -35 74 -29 0 -39
-29 -25 -71 8 -22 19 -43 26 -47 10 -6 11 -22 4 -69 -8 -61 -5 -88 23 -173 15
-44 49 -121 67 -150 5 -8 22 -42 38 -76 15 -33 34 -67 40 -75 24 -28 62 -84
68 -101 3 -9 16 -19 29 -22 27 -7 138 -123 161 -169 36 -69 229 -271 282 -294
39 -17 63 -17 40 1 -10 7 -18 21 -18 30 0 9 -17 39 -38 66 -114 152 -122 164
-200 303 -33 59 -72 157 -72 181 0 12 -7 30 -15 40 -18 23 -20 56 -4 56 7 0
26 -16 43 -36 17 -21 41 -48 53 -61 13 -13 25 -34 29 -48 3 -13 14 -31 25 -41
10 -9 19 -23 19 -30 0 -7 6 -17 14 -21 8 -4 21 -24 30 -43 8 -19 21 -44 28
-54 7 -11 24 -38 38 -60 95 -154 293 -375 407 -453 70 -49 184 -121 203 -129
8 -4 49 -23 90 -42 41 -19 95 -41 120 -48 25 -7 77 -23 115 -34 108 -33 134
-39 220 -45 44 -4 116 -13 160 -20 44 -8 120 -17 169 -20 50 -4 115 -14 145
-22 133 -34 271 -34 1101 1 58 2 117 9 132 14 15 6 91 14 170 17 79 4 166 13
193 20 28 8 88 17 135 21 47 4 94 11 105 17 11 6 49 16 85 22 36 7 79 17 95
23 93 31 134 44 164 52 19 5 48 15 65 23 17 9 60 28 96 43 125 52 251 117 340
174 90 59 211 113 223 101 8 -8 4 -11 -16 -11 -18 0 -27 -5 -27 -15 0 -19 -40
-75 -53 -75 -5 0 -30 -17 -56 -39 -25 -21 -56 -43 -69 -50 -28 -15 -18 -35 14
-27 34 9 112 64 136 97 12 16 28 29 35 29 7 0 26 19 41 43 15 23 59 75 99 115
40 40 109 127 153 195 45 67 86 124 90 127 4 3 23 34 41 70 19 36 37 67 42 68
10 5 54 100 63 137 4 17 15 41 26 54 10 13 18 30 18 37 0 7 5 16 12 20 14 9 4
-92 -11 -110 -6 -7 -13 -32 -17 -56 -4 -25 -15 -56 -26 -69 -10 -13 -18 -31
-18 -40 0 -10 -7 -26 -15 -37 -8 -10 -15 -28 -15 -40 0 -11 -9 -29 -20 -39
-11 -10 -20 -24 -20 -31 0 -7 -15 -41 -33 -75 -17 -33 -38 -73 -46 -87 -24
-47 -124 -195 -165 -247 -52 -65 -217 -230 -281 -281 -61 -48 -162 -115 -273
-180 -91 -53 -103 -60 -177 -95 -27 -13 -61 -32 -74 -41 -13 -10 -30 -18 -39
-18 -14 0 -68 -23 -137 -57 -36 -18 -121 -48 -195 -68 -166 -46 -217 -56 -335
-70 -71 -8 -170 -22 -220 -30 -181 -29 -560 -51 -1138 -65 -57 -1 -71 -5 -92
-26 -20 -20 -35 -25 -72 -24 -27 0 -67 0 -91 1 -24 0 -54 4 -68 9 -17 7 -32 6
-45 0 -13 -8 -25 -7 -40 0 -17 10 -24 7 -45 -13 -17 -17 -39 -26 -78 -30 -79
-8 -254 3 -306 19 -25 7 -81 23 -125 35 -44 12 -104 30 -132 41 -29 10 -79 28
-110 40 -68 24 -93 35 -113 47 -8 6 -85 44 -170 86 -85 42 -170 87 -189 101
-67 48 -157 132 -362 339 -289 292 -310 315 -342 364 -28 42 -30 43 -68 37
-22 -4 -59 -13 -82 -21 -49 -17 -130 -20 -158 -5 -13 8 -25 7 -40 -1 -34 -18
-100 -13 -163 14 -51 21 -60 29 -72 63 -17 48 -9 90 18 105 29 16 124 6 146
-14 26 -24 83 -22 105 3 17 20 74 27 170 22 49 -3 55 14 26 72 -20 40 -21 55
-16 146 4 76 2 111 -9 136 -8 18 -14 48 -14 65 0 18 -7 40 -15 49 -9 10 -18
35 -21 56 -3 22 -12 53 -19 69 -7 17 -18 42 -23 57 -7 16 -20 28 -34 30 -13 2
-194 0 -403 -4 -209 -4 -969 -5 -1690 -2 -720 2 -1316 4 -1323 4 -16 0 -36 50
-24 62 10 10 2437 16 3027 8 209 -3 396 -3 415 0 l35 6 -3 72 c-2 57 -7 80
-24 103 -20 27 -21 32 -8 52 9 14 15 52 16 107 0 47 3 92 6 100 4 8 9 32 12
53 10 74 48 95 199 108 139 11 449 2 542 -16 39 -8 95 -17 125 -21 30 -3 66
-11 80 -16 14 -5 60 -16 102 -23 126 -23 216 -91 152 -116 -14 -5 -31 -9 -38
-9 -11 0 -103 -45 -114 -55 -6 -6 20 -50 34 -58 8 -4 14 -14 14 -21 0 -8 8
-31 18 -53 15 -34 29 -58 90 -158 6 -11 21 -36 31 -56 11 -19 27 -41 35 -48 9
-8 16 -18 16 -23 0 -6 12 -25 27 -43 16 -19 44 -55 63 -81 63 -85 132 -159
184 -194 20 -14 48 -35 62 -47 14 -13 30 -23 36 -23 7 0 3 -7 -8 -15 -28 -22
-52 -18 -120 18 -73 38 -102 61 -132 105 -13 17 -29 32 -36 32 -15 0 -71 75
-190 257 -51 77 -100 149 -109 158 -10 9 -17 21 -17 27 0 13 -86 117 -120 144
-14 12 -35 24 -47 28 -20 6 -23 4 -23 -20 0 -27 54 -142 106 -226 226 -364
408 -585 497 -607 57 -13 126 -39 151 -56 11 -8 30 -15 41 -15 11 0 37 -9 58
-20 22 -12 56 -20 84 -20 25 0 54 -6 62 -14 9 -7 63 -18 126 -24 61 -6 130
-18 155 -26 122 -41 736 -66 1150 -47 423 20 454 22 498 37 68 23 163 18 216
-10 l46 -24 -62 -9 c-79 -10 -87 -29 -14 -35 70 -6 116 1 116 17 0 9 28 14 93
17 57 3 104 11 124 21 18 10 51 17 75 17 26 0 55 8 73 20 17 11 40 20 51 20
12 0 33 9 47 20 14 11 36 20 50 20 13 0 32 9 42 20 10 11 26 20 36 20 10 0 24
6 31 14 8 7 27 21 43 30 51 28 68 40 116 79 26 20 51 37 56 37 5 0 28 18 51
40 22 22 43 40 46 40 6 0 78 74 127 130 17 19 38 49 46 65 9 17 22 34 29 38 8
4 14 14 14 22 0 7 6 20 13 27 22 23 67 106 67 125 0 10 9 32 20 48 11 17 20
39 20 50 0 11 7 30 15 42 8 11 18 47 21 79 4 33 13 71 20 86 10 19 14 67 13
165 -1 108 -3 129 -10 99 -5 -22 -16 -47 -24 -56 -8 -9 -18 -31 -21 -48 -4
-17 -13 -37 -20 -43 -8 -6 -14 -19 -14 -28 0 -9 -14 -38 -30 -66 -16 -27 -30
-58 -30 -67 0 -9 -5 -20 -10 -23 -15 -10 -24 24 -12 48 34 73 42 100 42 146 0
28 7 71 16 97 27 81 -5 270 -65 373 -21 36 -41 84 -44 107 -9 54 -91 239 -128
285 -16 20 -29 41 -29 45 -1 12 -33 50 -46 55 -6 2 -39 37 -72 77 -55 66 -97
104 -167 152 -12 8 -39 29 -61 46 -57 45 -197 109 -289 133 -204 52 -382 67
-895 76 -481 9 -758 23 -878 46 -59 11 -124 23 -145 26 -28 4 -42 13 -52 34
l-15 27 70 13 c39 7 70 15 70 19 0 21 -45 43 -105 50 -36 4 -71 13 -78 18 -7
6 -48 13 -92 17 -50 5 -92 14 -111 26 -21 13 -50 19 -86 19 -41 0 -61 5 -78
20 -13 11 -36 20 -51 20 -15 0 -34 7 -43 15 -8 9 -36 19 -61 24 -25 5 -54 16
-64 25 -10 9 -29 16 -43 16 -14 0 -36 8 -49 19 -13 10 -34 21 -47 25 -12 4
-22 11 -22 15 0 5 -14 15 -32 22 -18 7 -40 20 -49 29 -10 8 -25 21 -34 28 -9
8 -44 37 -78 65 -112 92 -418 395 -447 442 -8 14 -18 25 -23 25 -4 0 -12 11
-17 25 -5 14 -16 25 -25 25 -8 0 -15 6 -15 14 0 8 -8 21 -18 28 -25 19 -58 69
-66 101 -3 15 -13 27 -20 27 -8 0 -18 17 -23 38 l-10 37 -13 -28 c-11 -22 -11
-33 -2 -48 14 -21 16 -45 5 -52 -5 -2 -3 -2 4 -1 15 4 43 -39 43 -66 0 -11 -6
-23 -14 -26 -15 -6 -66 36 -66 55 0 6 -11 16 -24 21 -18 7 -25 19 -30 54 -7
46 -19 65 -31 46 -11 -18 -23 -10 -43 31 -19 38 -20 46 -8 80 16 47 3 72 -34
67 -14 -2 -27 2 -30 7 -3 6 5 11 18 13 41 6 22 51 -24 56 -16 2 -30 10 -32 17
-1 8 -12 19 -24 24 -32 15 -58 55 -65 100 -3 22 -11 47 -18 55 -7 8 -18 33
-25 55 -7 22 -21 51 -31 64 -11 13 -19 32 -19 43 0 10 -12 42 -26 70 l-26 52
-18 -24 c-17 -23 -17 -27 -3 -60 11 -24 15 -64 14 -131 -2 -76 2 -106 17 -140
47 -106 52 -123 52 -175 0 -30 -4 -63 -9 -73 -11 -21 7 -161 20 -161 5 0 9 -8
9 -18 0 -15 -20 -28 -72 -46 -10 -3 -18 -12 -18 -20 0 -18 -54 -49 -65 -38 -3
4 -12 0 -18 -8 -7 -8 -25 -24 -41 -34 -30 -19 -25 -38 13 -40 12 0 21 -4 21
-8 0 -5 0 -12 0 -18 0 -5 -9 -10 -19 -10 -12 0 -25 -12 -33 -30 -8 -18 -21
-30 -33 -31 -52 -3 -60 -5 -58 -15 1 -6 -17 -12 -40 -13 -23 -2 -60 -4 -82 -6
-22 -2 -43 -4 -47 -4 -16 -2 -29 -41 -19 -59 8 -15 4 -23 -19 -40 -35 -26 -43
-27 -60 -7 -12 14 -15 14 -31 -1 -15 -13 -41 -16 -138 -16 -105 0 -125 3 -154
21 -19 12 -46 21 -61 21 -21 0 -30 7 -42 35 -8 19 -21 35 -28 35 -8 0 -17 14
-21 30 -5 24 -17 35 -59 55 -29 14 -55 25 -59 25 -3 0 0 -16 5 -35 8 -24 18
-36 37 -40 51 -12 79 -46 82 -98 2 -38 -1 -51 -14 -58 -14 -8 -17 -26 -17
-109 0 -92 -2 -100 -22 -111 -20 -11 -20 -13 -5 -24 21 -15 21 -24 1 -64 -11
-23 -14 -43 -9 -69 6 -31 9 -128 7 -209 0 -10 0 -40 2 -68 1 -37 -3 -57 -18
-78 -19 -26 -23 -28 -73 -21 -63 8 -98 -10 -108 -54 -8 -40 -104 -142 -133
-142 -13 0 -36 -7 -52 -15 -35 -18 -51 -13 -67 21 -10 22 -8 30 17 67 16 23
45 53 64 67 44 32 59 56 51 81 -4 11 -9 18 -12 15 -4 -3 -12 -1 -20 5 -33 28
-142 -12 -205 -74 -10 -9 -25 -17 -33 -17 -8 0 -24 -9 -36 -21 -19 -19 -22
-20 -39 -4 -10 9 -23 14 -29 11 -23 -15 -229 -24 -579 -27 -84 -1 -154 -4
-156 -8 -5 -8 -445 -5 -676 4 -91 4 -253 7 -360 8 -107 1 -200 6 -207 10 -6 4
-24 2 -40 -4 -37 -14 -246 -13 -273 1 -11 6 -25 8 -31 5 -5 -4 -83 -6 -172 -4
-314 5 -467 1 -483 -12 -12 -10 -17 -10 -23 0 -6 9 -38 11 -132 6 -68 -4 -164
-5 -214 -4 -109 4 -131 4 -360 -6 -220 -8 -249 -13 -253 -43 -3 -20 -9 -22
-60 -22 -44 0 -64 -6 -94 -26 -36 -26 -39 -26 -57 -10 -14 13 -24 15 -38 8
-10 -5 -27 -6 -38 -1 -31 12 -33 11 -70 -25 l-35 -35 -14 -153 c-26 -275 -32
-494 -41 -1528 -4 -422 -11 -718 -17 -737 -5 -18 -53 -81 -108 -140 -88 -96
-118 -142 -102 -158 11 -11 53 -4 58 10 3 8 21 19 40 25 19 6 34 15 34 19 0 5
26 25 59 45 32 20 69 48 81 61 30 32 102 58 230 84 140 28 596 49 1215 56
1111 13 2194 33 2206 41 14 8 1159 4 1218 -5 84 -13 106 -34 114 -109 8 -76
29 -170 34 -154 3 6 10 12 16 12 6 0 21 10 34 22 l23 22 35 -34 c28 -27 35
-42 35 -73 0 -52 -15 -77 -46 -77 -29 0 -94 46 -94 66 0 19 -16 18 -24 -1 -3
-8 -21 -23 -41 -32 -26 -13 -43 -32 -65 -77 -17 -32 -30 -68 -30 -78 0 -10
-10 -32 -21 -48 -19 -25 -20 -33 -10 -77 6 -26 13 -92 16 -146 4 -81 9 -104
30 -136 13 -22 29 -42 35 -46 16 -10 12 -23 -11 -30 -11 -4 -25 -19 -32 -33
-6 -15 -23 -37 -37 -49 -21 -18 -25 -30 -27 -85 -1 -34 -2 -75 -2 -89 -1 -14
-7 -33 -14 -42 -17 -24 -142 -50 -182 -38 -53 16 -186 29 -318 30 -71 1 -147
5 -170 11 -23 5 -168 11 -322 14 -600 13 -734 17 -850 27 -154 13 -1627 17
-2015 5 -304 -9 -1028 5 -1260 24 -63 6 -180 15 -260 20 -80 5 -161 14 -180
21 -86 27 -90 30 -90 64 0 27 7 37 40 59 22 14 57 37 78 51 21 14 42 25 48 25
5 0 36 24 68 53 43 39 58 58 53 70 -3 9 -16 17 -28 17 -12 0 -36 12 -54 28
-18 15 -49 41 -69 57 l-37 30 6 180 c4 103 12 199 20 225 7 25 16 83 19 130 3
47 11 121 17 165 15 114 18 148 29 345 12 235 13 1321 0 1490 -5 74 -12 261
-15 415 -8 396 -22 715 -34 750 -6 18 -12 284 -15 640 -4 464 -9 630 -20 695
-17 99 -40 170 -63 187 -13 10 -17 58 -24 325 -16 564 -28 790 -43 848 -8 30
-17 68 -20 83 -5 21 -14 29 -37 34 -16 3 -34 14 -40 25 -10 19 -12 19 -30 2
-10 -9 -19 -25 -19 -36 0 -14 -8 -18 -33 -18 -40 0 -51 -8 -36 -26 17 -20 2
-64 -20 -64 -11 0 -28 -3 -38 -6 -17 -5 -16 -4 1 10 11 9 17 18 14 22 -12 11
-46 -28 -41 -47 3 -11 1 -25 -5 -32 -6 -7 -14 -53 -18 -102 -3 -50 -11 -95
-16 -102 -5 -7 -9 -52 -8 -100 2 -56 -4 -114 -15 -158 -9 -38 -20 -92 -25
-120 -4 -27 -15 -79 -24 -115 -8 -36 -18 -83 -21 -105 -4 -22 -9 -62 -13 -90
-5 -27 -16 -62 -26 -77 -10 -16 -16 -34 -13 -42 3 -8 1 -16 -5 -18 -6 -2 -12
-21 -15 -42 -2 -26 -12 -45 -29 -59 -15 -12 -23 -25 -19 -35 3 -8 -3 -25 -13
-36 -11 -12 -27 -43 -37 -69 -10 -27 -24 -51 -32 -54 -7 -3 -17 -23 -23 -44
-6 -21 -20 -43 -30 -49 -11 -6 -34 -38 -50 -71 -17 -33 -40 -69 -50 -79 -11
-11 -35 -48 -52 -81 -18 -33 -42 -69 -55 -79 -13 -10 -23 -27 -23 -38 0 -11
-15 -40 -34 -65 -24 -31 -31 -48 -25 -60 13 -22 1 -44 -26 -51 -19 -5 -24 -14
-29 -60 -6 -42 -12 -55 -27 -59 -17 -5 -18 -8 -8 -31 10 -22 9 -29 -5 -45 -9
-10 -16 -22 -15 -27 3 -21 -3 -33 -48 -86 -70 -82 -197 -180 -263 -203 l-35
-12 37 -7 c100 -19 331 -140 469 -246 264 -203 350 -291 440 -450 39 -69 99
-214 99 -241 0 -25 30 -112 43 -125 4 -4 7 -16 7 -26 0 -10 9 -38 20 -61 15
-30 19 -52 15 -79 -9 -51 0 -73 40 -97 39 -23 42 -32 19 -56 -15 -15 -15 -17
1 -29 13 -9 16 -21 13 -40 -3 -15 1 -41 9 -57 11 -22 15 -86 18 -264 3 -130 7
-241 11 -246 3 -6 1 -23 -6 -39 -10 -23 -9 -39 4 -85 9 -30 14 -60 11 -65 -9
-15 -25 -12 -32 7 -11 27 -36 53 -53 53 -18 0 -45 -29 -55 -60 -4 -12 -10 -19
-13 -15 -4 3 -14 -31 -23 -77 -25 -118 -46 -197 -57 -211 -5 -7 -12 -25 -16
-42 -10 -44 -44 -132 -76 -195 -44 -88 -101 -194 -115 -210 -6 -8 -14 -22 -17
-30 -6 -16 -90 -133 -133 -185 -146 -177 -296 -321 -415 -400 -139 -91 -384
-215 -425 -215 -14 0 -30 -9 -37 -20 -7 -11 -23 -20 -35 -20 -12 0 -25 -4 -28
-10 -3 -5 3 -10 14 -10 12 0 21 -7 21 -15 0 -18 12 -19 27 -4 6 6 72 15 147
20 86 5 147 14 166 24 16 8 44 15 62 15 18 0 48 4 67 10 55 15 253 -4 348 -35
97 -31 111 -43 86 -74 -10 -12 -28 -27 -39 -34 -58 -33 -103 -60 -144 -87 -25
-16 -74 -44 -110 -62 -36 -17 -85 -44 -109 -59 -24 -16 -68 -33 -97 -39 -30
-6 -54 -15 -54 -19 0 -10 -131 -71 -151 -71 -8 0 -24 -7 -37 -15 -47 -34 -246
-76 -447 -96 -136 -13 -1706 -5 -1875 10 -63 6 -452 11 -865 11 -813 1 -871 2
-1260 26 -143 8 -384 19 -535 24 -326 10 -334 11 -348 48 -27 71 -14 221 24
280 8 12 22 61 31 108 17 95 33 119 72 109 31 -8 61 -33 61 -51 0 -19 33 -34
72 -34 29 0 40 7 72 50 32 42 43 50 72 50 l33 0 -29 31 c-15 17 -36 48 -46 68
-24 45 -64 91 -81 91 -7 0 -32 -13 -55 -30 -22 -16 -47 -30 -55 -30 -8 0 -27
-7 -42 -15 -54 -27 -56 -14 -53 279 3 241 -1 404 -28 1271 -19 645 -24 1216
-24 3491 -1 1956 -3 2344 -15 2357 -9 12 -11 30 -6 59 3 24 7 139 8 256 2 180
0 214 -13 222 -11 7 -19 4 -30 -8 -25 -30 -66 -51 -112 -58 -60 -10 -108 -43
-108 -74 0 -38 11 -47 65 -54 32 -5 59 -16 76 -33 24 -22 26 -29 18 -61 -12
-50 -11 -136 1 -148 16 -16 23 -133 10 -149 -7 -8 -10 -27 -7 -42 3 -15 0 -37
-6 -50 -7 -16 -7 -26 1 -35 7 -9 7 -29 2 -58 -4 -25 -11 -98 -13 -163 -4 -81
-11 -126 -21 -142 -11 -17 -12 -25 -3 -34 8 -8 8 -19 -1 -44 -7 -20 -13 -143
-17 -327 -5 -265 -14 -394 -29 -419 -3 -5 -10 -181 -16 -392 -12 -406 -11
-401 -29 -494 -7 -33 -16 -186 -20 -341 -4 -155 -11 -286 -15 -293 -4 -6 -11
-133 -14 -281 -7 -265 -13 -303 -41 -286 -13 8 -14 504 -2 856 9 264 3 318
-42 356 l-30 25 -158 -7 c-149 -6 -157 -6 -161 12 -2 11 1 35 6 54 17 57 12
515 -7 640 -9 58 -19 132 -22 165 -3 33 -12 76 -20 95 -7 19 -21 69 -30 110
-23 101 -91 260 -137 319 -10 13 -18 29 -18 36 0 6 -16 29 -35 51 -19 21 -40
54 -46 72 -6 17 -17 32 -26 32 -8 0 -17 8 -20 18 -3 14 -11 18 -30 14 -24 -5
-25 -7 -19 -54 5 -32 3 -55 -5 -64 -11 -14 -5 -79 10 -99 4 -5 13 -37 21 -70
29 -136 51 -233 62 -280 8 -33 12 -126 12 -270 -1 -220 -16 -379 -50 -525 -8
-36 -17 -81 -20 -100 -3 -19 -10 -53 -15 -75 -6 -22 -14 -59 -19 -83 -6 -24
-17 -67 -25 -95 -14 -47 -24 -72 -75 -179 -24 -52 -153 -189 -200 -213 -19
-10 -56 -19 -81 -21 -42 -2 -52 -8 -101 -57 -236 -242 -287 -292 -318 -307
-14 -7 -37 -22 -52 -34 -40 -32 -103 -76 -125 -89 -11 -7 -33 -21 -49 -31 -55
-37 -129 -82 -154 -94 -14 -7 -50 -30 -80 -52 -30 -22 -60 -40 -65 -40 -6 0
-23 -14 -38 -30 -16 -17 -39 -33 -53 -36 -30 -8 -39 -36 -22 -71 16 -33 66
-44 175 -37 37 2 111 6 163 8 68 3 109 10 143 26 91 40 293 165 342 210 11 11
37 26 57 34 20 9 38 21 41 28 8 22 30 -7 23 -29 -8 -25 -220 -232 -308 -301
-36 -29 -82 -59 -102 -67 -20 -9 -36 -19 -36 -23 1 -19 19 -32 65 -42 54 -13
231 -98 280 -135 17 -12 44 -29 62 -38 29 -15 58 -43 189 -182 79 -84 174
-197 174 -208 0 -5 20 -40 45 -78 25 -38 45 -75 45 -83 0 -9 25 -60 55 -113
30 -54 55 -102 55 -107 0 -9 40 -101 64 -146 7 -14 19 -50 26 -80 7 -30 16
-66 21 -80 5 -14 20 -83 34 -154 21 -109 25 -158 25 -309 0 -318 -75 -867
-140 -1022 -4 -11 -23 -63 -41 -115 -38 -113 -142 -330 -198 -417 -35 -55 -76
-101 -280 -317 -31 -33 -92 -91 -136 -129 -94 -82 -185 -173 -185 -185 0 -5
-15 -16 -32 -26 -54 -28 -77 -42 -95 -57 -10 -8 -44 -28 -75 -43 -31 -15 -62
-34 -69 -42 -6 -8 -19 -14 -29 -14 -9 0 -28 -9 -42 -19 -13 -11 -36 -23 -51
-26 -14 -4 -31 -13 -38 -21 -6 -8 -17 -14 -23 -14 -6 0 -33 -11 -61 -25 -27
-13 -57 -25 -65 -25 -9 0 -25 -7 -38 -15 -23 -17 -113 -50 -172 -65 -214 -52
-407 -63 -1100 -64 -727 -1 -3167 23 -3254 32 -91 10 -100 22 -91 122 4 41 7
92 6 114 -1 21 1 47 4 57 14 43 133 57 665 79 140 6 275 15 300 21 24 6 78 12
120 15 41 2 104 6 140 9 93 6 626 18 745 16 94 -2 542 1 790 5 61 1 173 2 250
2 186 0 232 1 285 3 46 3 117 2 180 -2 19 -1 55 -2 80 -1 25 0 92 1 150 2 58
1 173 8 255 16 83 9 163 15 180 15 16 0 54 8 83 19 29 11 68 20 87 20 19 0 37
5 41 11 4 7 20 9 40 6 22 -4 37 -1 45 10 7 8 23 13 36 10 13 -2 29 3 38 13 9
10 37 21 63 25 26 4 67 20 91 37 24 16 52 27 62 25 10 -3 20 0 21 5 2 6 15 12
29 13 14 2 45 16 69 33 24 16 51 27 60 25 25 -7 75 22 100 57 28 39 57 55 75
40 10 -8 21 -6 47 10 18 11 29 20 24 20 -5 0 1 11 14 25 13 14 31 25 40 25 9
0 38 11 64 25 53 28 60 30 50 14 -4 -7 -1 -10 7 -7 8 3 14 10 14 16 0 15 36
41 56 42 9 0 24 12 34 26 12 19 23 25 41 21 18 -3 29 3 44 23 13 18 26 26 38
24 11 -3 35 12 66 40 27 26 55 46 62 46 17 0 18 30 3 64 -9 20 -9 29 1 41 12
14 15 14 33 -2 19 -17 20 -17 14 0 -4 9 -2 29 3 43 7 17 7 23 0 19 -13 -8 -13
31 1 57 14 25 3 37 -14 14 -12 -16 -14 -16 -40 4 -22 17 -30 19 -48 10 -16 -9
-24 -8 -38 4 -13 12 -20 13 -29 4 -18 -18 -15 -26 11 -30 17 -2 23 -11 25 -35
2 -18 2 -33 0 -33 -2 0 -17 4 -35 9 -37 11 -50 3 -25 -15 13 -10 15 -17 6 -30
-14 -24 -34 -29 -34 -10 0 9 -7 16 -16 16 -11 0 -14 -8 -12 -25 2 -19 -10 -37
-56 -80 -33 -30 -65 -55 -72 -55 -6 0 -17 -7 -24 -15 -7 -9 -29 -15 -51 -15
-30 0 -42 -5 -55 -25 -11 -17 -25 -25 -45 -25 -18 0 -32 -7 -39 -20 -6 -11
-21 -20 -34 -20 -14 0 -28 -9 -36 -25 -8 -16 -22 -25 -36 -25 -14 0 -28 -9
-35 -23 -16 -30 -30 -37 -50 -27 -17 10 -49 -15 -49 -38 0 -18 -21 -14 -35 5
-12 16 -15 16 -32 2 -22 -20 -85 -34 -131 -30 -27 2 -35 -1 -39 -18 -5 -18
-12 -20 -48 -17 -24 2 -49 -2 -60 -10 -10 -8 -30 -11 -46 -7 -16 3 -35 1 -41
-5 -7 -5 -44 -10 -83 -11 -38 0 -95 -5 -125 -11 -30 -6 -105 -13 -167 -15 -62
-2 -126 -6 -142 -10 -17 -3 -63 -2 -103 4 -132 20 -2740 12 -2775 -8 -9 -5
-42 -6 -74 -4 -39 4 -74 0 -108 -11 -27 -9 -60 -16 -72 -16 -12 0 -30 -6 -38
-14 -9 -8 -52 -29 -96 -47 -65 -27 -97 -34 -171 -37 -90 -4 -92 -3 -124 25
-26 24 -35 41 -41 84 -5 30 -11 452 -14 939 -3 487 -9 1009 -15 1160 -5 151
-12 361 -15 465 -3 105 -8 285 -12 400 -8 204 -8 636 -3 1910 6 1548 -5 2601
-28 2710 l-8 40 -112 0 c-89 0 -115 3 -123 15 -6 9 -8 58 -6 122 4 96 8 114
37 170 17 35 45 76 62 92 29 27 35 28 92 23 34 -3 277 -2 541 4 264 5 874 12
1355 14 1640 9 2327 15 2343 21 11 4 16 -1 19 -17 2 -12 10 -25 18 -29 8 -4
32 -16 53 -26 21 -11 47 -29 58 -40 12 -13 28 -20 39 -17 10 3 29 -2 41 -10
13 -8 40 -17 60 -20 30 -4 41 -1 59 18 19 20 22 35 23 141 1 66 -2 295 -6 509
-8 351 -7 395 8 445 11 38 19 118 25 255 7 172 19 327 35 453 l4 32 -3664 0
-3663 0 -6 -35 c-5 -27 -14 -39 -34 -46 -36 -14 -152 -30 -227 -32 l-60 -2 -3
58 -3 57 -289 0 c-172 0 -290 -4 -290 -9 0 -18 -30 -39 -49 -34 -10 3 -21 13
-24 24 -5 19 -80 19 -4131 19 l-4126 0 0 -6200z m5228 6148 c17 -17 15 -53 -4
-68 -11 -10 -25 -11 -52 -4 -30 7 -38 14 -40 37 -3 21 2 29 20 36 33 14 62 13
76 -1z m3079 -54 c30 -30 19 -50 -21 -40 -21 5 -26 13 -26 36 0 37 13 38 47 4z
m12 -390 c8 -8 -21 -24 -46 -24 -25 0 -38 15 -27 31 6 10 61 6 73 -7z m1873 4
c9 -7 19 -31 23 -53 5 -33 2 -46 -16 -69 -21 -27 -25 -28 -97 -24 -65 3 -77 7
-97 30 -29 34 -23 70 17 103 25 21 40 25 92 25 35 0 69 -6 78 -12z m-1242 -38
c0 -11 -4 -20 -10 -20 -5 0 -10 9 -10 20 0 11 5 20 10 20 6 0 10 -9 10 -20z
m280 -10 c0 -5 -13 -10 -30 -10 -16 0 -30 5 -30 10 0 6 14 10 30 10 17 0 30
-4 30 -10z m595 1 c10 -17 -34 -33 -68 -25 -41 8 -49 13 -42 25 8 12 102 12
110 0z m-673 -36 c0 -5 -5 -11 -11 -13 -6 -2 -11 4 -11 13 0 9 5 15 11 13 6
-2 11 -8 11 -13z m4826 -2 c2 -8 -5 -13 -17 -13 -12 0 -21 6 -21 16 0 18 31
15 38 -3z m-5038 -48 c0 -3 -9 -5 -19 -5 -24 0 -35 15 -27 36 5 12 9 11 26 -6
11 -11 20 -22 20 -25z m-640 4 c0 -12 -37 -12 -44 0 -3 4 -3 11 0 14 8 7 44
-4 44 -14z m3938 -68 c19 -11 -10 -34 -39 -29 -31 4 -35 25 -7 31 13 2 25 5
28 5 3 1 11 -2 18 -7z m4116 -308 c4 -43 13 -84 19 -92 16 -19 23 -596 7 -606
-7 -4 -11 52 -12 172 0 98 0 187 1 198 1 10 -6 37 -15 60 -20 46 -34 363 -17
352 6 -4 13 -41 17 -84z m-7123 -632 c142 -21 174 -36 251 -119 66 -71 116
-153 130 -213 12 -50 11 -52 -15 -75 -46 -39 -120 -47 -352 -39 -335 13 -374
12 -425 -8 -88 -36 -83 -7 -90 -552 -9 -751 -1 -3904 9 -3990 15 -114 23 444
33 2180 6 1001 11 1888 12 1971 1 185 3 189 91 179 98 -11 127 -42 126 -139 0
-26 8 -67 17 -90 16 -37 17 -105 14 -786 -1 -410 -6 -882 -11 -1050 -8 -285
-4 -2616 5 -2725 2 -27 8 -108 13 -180 10 -140 5 -2601 -5 -2694 -6 -50 -11
-58 -78 -122 -58 -57 -76 -69 -103 -69 -37 0 -70 -27 -77 -62 -16 -83 -38
-164 -46 -172 -28 -28 -156 16 -194 67 -18 24 -21 49 -28 230 -4 111 -10 963
-13 1892 -4 930 -8 1713 -10 1740 -1 28 -5 550 -9 1160 -3 611 -8 1178 -11
1260 -3 83 -7 553 -11 1045 -4 764 -3 916 10 1036 16 149 19 158 54 215 57 92
171 126 427 128 110 1 200 -5 286 -18z m-1785 -50 c155 -10 210 -27 232 -76
15 -34 15 -94 -1 -120 -42 -70 -54 -89 -74 -113 -13 -15 -23 -35 -23 -45 0
-10 -13 -31 -28 -47 -25 -24 -38 -29 -108 -34 -43 -4 -140 -14 -214 -23 -327
-38 -334 -41 -361 -114 -9 -24 -21 -60 -28 -79 -7 -19 -24 -66 -38 -105 -27
-74 -45 -137 -69 -245 -8 -36 -21 -83 -29 -105 -8 -22 -17 -67 -20 -100 -4
-33 -11 -68 -17 -78 -5 -10 -14 -46 -19 -80 -6 -34 -14 -66 -19 -73 -6 -6 -16
-53 -24 -105 -22 -139 -39 -214 -54 -232 -7 -8 -13 -32 -13 -54 0 -55 -9 -156
-16 -173 -7 -17 -4 -156 3 -182 3 -11 15 -18 30 -18 16 0 24 -6 25 -17 0 -10
5 -5 9 11 5 16 7 33 4 38 -4 5 3 19 14 31 10 12 32 55 46 94 15 40 32 75 37
79 5 3 9 22 9 42 0 20 8 51 19 67 10 17 24 48 31 69 7 21 18 50 26 64 8 15 14
34 14 42 0 8 6 27 14 41 7 14 16 43 20 65 5 21 16 58 27 81 10 23 19 49 19 57
0 9 9 33 20 53 11 21 20 46 20 55 0 10 9 35 20 55 11 21 20 44 20 51 0 8 7 28
15 45 13 30 27 68 55 147 7 19 20 51 30 70 10 19 21 49 24 67 4 17 14 37 22
44 8 6 14 17 14 23 0 41 173 198 200 181 16 -10 12 -53 -10 -95 -11 -22 -20
-50 -20 -62 -1 -13 -9 -41 -20 -63 -11 -22 -19 -48 -20 -58 0 -11 -7 -33 -15
-50 -8 -18 -22 -57 -31 -87 -8 -30 -22 -77 -30 -105 -7 -27 -18 -59 -24 -70
-6 -11 -17 -44 -25 -72 -33 -118 -65 -214 -97 -295 -10 -26 -18 -55 -18 -65 0
-10 -6 -30 -14 -45 -8 -15 -17 -42 -21 -60 -3 -18 -12 -49 -20 -68 -19 -50
-44 -127 -60 -185 -13 -48 -33 -108 -61 -185 -15 -42 -40 -119 -59 -180 -21
-68 -46 -141 -60 -175 -13 -31 -35 -94 -60 -175 -23 -74 -46 -143 -60 -180
-14 -38 -38 -109 -60 -180 -19 -64 -46 -140 -60 -175 -7 -16 -24 -70 -39 -120
-15 -49 -33 -103 -41 -120 -7 -16 -18 -48 -23 -70 -6 -22 -15 -53 -21 -70 -14
-40 -32 -99 -90 -287 -12 -38 -30 -97 -41 -133 -11 -36 -29 -94 -40 -130 -11
-36 -29 -95 -41 -132 -11 -38 -26 -93 -34 -123 -7 -30 -34 -129 -60 -220 -67
-236 -138 -502 -196 -735 -16 -66 -45 -167 -63 -225 -18 -58 -55 -175 -81
-260 -78 -252 -158 -483 -270 -775 -63 -165 -137 -353 -156 -393 -10 -23 -19
-48 -19 -55 -1 -6 -9 -30 -20 -52 -11 -22 -19 -46 -20 -53 0 -8 -7 -28 -15
-45 -8 -18 -21 -52 -29 -77 -16 -49 -40 -116 -81 -225 -14 -38 -31 -88 -36
-109 -5 -22 -16 -51 -23 -65 -16 -32 -44 -113 -57 -165 -5 -21 -16 -48 -24
-60 -8 -11 -15 -27 -15 -36 0 -9 -9 -33 -20 -55 -11 -22 -20 -47 -20 -57 0
-10 -9 -35 -20 -55 -11 -21 -20 -43 -20 -50 0 -7 -9 -32 -19 -55 -11 -24 -30
-70 -42 -103 -13 -33 -26 -65 -30 -70 -4 -6 -17 -36 -29 -67 -43 -116 -127
-220 -211 -263 -40 -21 -70 -26 -215 -35 -93 -5 -243 -12 -334 -15 -91 -3
-185 -8 -210 -10 -89 -9 -127 20 -182 135 -15 30 -36 89 -48 130 -11 41 -29
104 -39 140 -10 36 -24 85 -30 110 -50 200 -117 444 -171 625 -51 170 -66 219
-90 310 -35 131 -73 270 -86 315 -7 25 -24 88 -39 140 -15 52 -33 118 -41 145
-9 28 -26 91 -39 140 -77 289 -107 401 -133 490 -16 55 -34 120 -41 145 -6 25
-20 74 -30 110 -10 36 -28 99 -39 140 -12 41 -28 98 -36 125 -8 28 -23 84 -34
125 -11 41 -32 116 -47 165 -15 50 -33 115 -40 145 -8 30 -29 105 -48 165 -19
61 -39 128 -44 150 -18 67 -83 297 -97 345 -8 25 -24 81 -37 125 -12 44 -37
130 -55 190 -18 61 -40 135 -48 165 -8 30 -28 93 -45 140 -31 90 -85 273 -126
429 -14 51 -36 128 -49 170 -13 42 -34 119 -46 171 -12 52 -30 127 -40 165
-34 125 -68 267 -100 410 -40 179 -105 450 -129 540 -11 39 -29 113 -41 165
-12 52 -38 156 -57 230 -20 74 -37 144 -40 155 -5 21 -39 138 -78 265 -13 41
-33 109 -45 150 -12 41 -30 98 -40 125 -38 106 -50 154 -50 194 0 52 -21 94
-54 109 -20 9 -26 20 -30 59 -3 26 -15 86 -26 133 -11 47 -27 129 -36 184 -22
143 -8 195 64 247 l47 34 405 3 c468 4 632 -6 712 -41 56 -26 124 -92 134
-132 3 -13 12 -29 20 -36 8 -6 14 -18 14 -26 0 -8 9 -31 19 -51 11 -20 24 -48
30 -62 6 -14 15 -32 20 -40 15 -23 41 -116 41 -144 0 -14 -5 -28 -11 -32 -15
-9 -106 41 -149 82 -19 18 -47 37 -63 43 -15 6 -107 11 -205 12 -117 1 -191 7
-217 15 -55 19 -73 17 -86 -7 -17 -32 -3 -80 37 -120 31 -32 37 -46 49 -125
21 -124 40 -219 59 -289 9 -32 16 -69 16 -81 0 -13 9 -62 19 -111 11 -48 28
-133 40 -188 11 -55 32 -152 46 -215 52 -231 77 -347 97 -440 21 -102 32 -150
73 -335 15 -66 35 -158 45 -205 10 -47 28 -128 40 -180 51 -224 43 -191 134
-525 19 -71 47 -164 61 -205 14 -41 35 -112 46 -158 59 -252 166 -688 225
-912 25 -96 59 -233 76 -305 16 -71 36 -150 44 -174 15 -44 28 -93 100 -370
20 -74 46 -167 59 -205 13 -39 38 -123 55 -186 54 -198 58 -213 80 -285 11
-38 29 -113 40 -165 11 -52 29 -135 40 -185 12 -49 29 -130 40 -180 10 -49 28
-124 39 -165 12 -41 28 -109 37 -150 8 -41 24 -106 35 -145 39 -134 48 -170
58 -225 20 -110 70 -266 108 -335 42 -76 54 -84 149 -100 165 -29 257 16 323
160 14 31 125 346 141 400 4 17 40 122 80 235 76 218 141 417 170 515 21 71
148 428 191 535 17 41 43 109 58 150 16 41 36 92 45 112 9 21 16 43 16 49 0 7
9 30 19 53 11 23 22 58 26 78 3 21 12 41 19 45 7 5 16 25 19 47 3 21 13 46 20
55 8 9 18 37 21 63 4 25 13 52 21 58 8 6 17 33 21 58 3 26 13 54 21 63 7 9 18
40 22 69 5 29 13 55 20 59 6 4 14 29 17 57 4 27 13 56 20 64 7 9 16 41 20 73
4 31 13 62 20 68 8 7 14 30 14 55 0 31 6 50 20 64 15 15 20 33 20 70 0 39 4
53 20 62 13 8 20 24 20 43 0 45 11 75 26 75 10 0 14 14 14 50 0 37 5 55 20 70
13 13 20 33 20 60 0 26 7 47 19 59 12 12 20 38 23 76 3 38 11 62 21 70 10 7
17 26 17 42 0 51 12 93 26 93 10 0 14 15 14 55 0 44 4 57 20 67 15 10 20 24
20 60 0 34 6 54 19 67 13 13 20 38 23 79 3 38 11 68 21 80 9 10 17 34 17 54 0
41 18 98 31 98 5 0 9 25 9 55 0 41 5 60 19 74 11 11 17 21 15 24 -2 2 1 26 7
53 13 61 29 174 34 234 1 25 9 61 17 80 9 20 19 67 23 105 4 38 13 79 21 90 8
10 14 29 14 40 0 11 7 31 16 43 8 12 22 45 30 74 9 28 24 67 35 87 10 20 19
43 19 51 0 8 6 35 14 60 8 25 26 86 41 135 15 50 32 101 37 115 9 22 51 173
79 285 28 111 49 251 54 366 2 42 10 100 19 129 9 30 16 72 16 95 0 22 7 68
16 100 9 33 20 80 23 105 4 25 12 61 18 80 12 37 36 128 59 220 29 119 55 205
64 214 6 6 10 19 10 31 0 36 50 129 90 166 35 33 48 38 122 48 46 6 103 13
128 15 62 6 495 -3 666 -13z m18064 -1991 c0 -11 -4 -20 -10 -20 -5 0 -10 9
-10 20 0 11 5 20 10 20 6 0 10 -9 10 -20z m-30 -24 c0 -11 -19 -15 -25 -6 -3
5 1 10 9 10 9 0 16 -2 16 -4z m-7850 -1671 c0 -14 -4 -25 -10 -25 -11 0 -14
33 -3 43 11 11 13 8 13 -18z m15123 -45 c3 -10 -1 -24 -9 -31 -11 -9 -14 -6
-14 20 0 34 15 42 23 11z m-15203 -110 c0 -20 -5 -30 -15 -30 -17 0 -18 4 -9
38 9 32 24 27 24 -8z m15277 -47 c-3 -10 -5 -4 -5 12 0 17 2 24 5 18 2 -7 2
-21 0 -30z m-15317 -13 c0 -11 -7 -23 -15 -26 -8 -3 -20 -24 -25 -45 -6 -22
-21 -46 -34 -55 -13 -8 -27 -25 -30 -38 -3 -13 -22 -35 -41 -50 -19 -15 -35
-32 -35 -38 0 -19 -32 -48 -52 -48 -10 0 -18 5 -18 10 0 30 66 125 142 205 20
22 49 55 64 73 30 37 44 41 44 12z m15360 -35 c0 -8 -4 -15 -10 -15 -5 0 -10
7 -10 15 0 8 5 15 10 15 6 0 10 -7 10 -15z m46 -39 c3 -8 1 -23 -5 -33 -9 -17
-10 -16 -19 7 -5 14 -8 28 -5 33 7 12 23 8 29 -7z m-8252 -87 c-3 -5 -10 -7
-15 -3 -5 3 -7 10 -3 15 3 5 10 7 15 3 5 -3 7 -10 3 -15z m8312 -5 c10 -14 48
-63 84 -108 36 -46 72 -93 80 -106 8 -12 44 -57 78 -101 77 -94 74 -125 -4
-44 -30 30 -54 60 -54 65 0 6 -5 10 -10 10 -6 0 -14 8 -17 18 -4 9 -15 26 -25
37 -46 49 -68 79 -68 91 0 8 -7 14 -15 14 -8 0 -15 8 -15 18 0 10 -9 25 -20
35 -11 9 -20 26 -20 37 0 13 -10 24 -26 30 -14 6 -22 14 -19 20 11 17 32 11
51 -16z m-15743 -174 c-3 -11 -9 -20 -13 -20 -5 0 -6 9 -3 20 3 11 9 20 13 20
5 0 6 -9 3 -20z m-6448 -110 c9 -27 -1 -40 -30 -40 -29 0 -39 13 -30 40 4 13
15 20 30 20 15 0 26 -7 30 -20z m-3683 -42 c-9 -9 -12 -4 -11 23 0 32 1 33 11
11 8 -17 8 -26 0 -34z m24608 -28 c0 -5 -2 -10 -4 -10 -3 0 -8 5 -11 10 -3 6
-1 10 4 10 6 0 11 -4 11 -10z m0 -86 c0 -21 -4 -33 -10 -29 -17 10 -11 65 7
65 2 0 3 -16 3 -36z m1604 10 c7 -19 -2 -37 -15 -29 -12 8 -12 45 0 45 5 0 12
-7 15 -16z m36 -55 c0 -6 11 -20 25 -31 14 -11 25 -26 25 -34 0 -22 -20 -16
-29 10 -5 13 -17 26 -25 29 -17 7 -22 37 -6 37 6 0 10 -5 10 -11z m-7792 -55
c17 -12 22 -25 22 -59 0 -52 -16 -65 -83 -65 -34 0 -51 6 -75 28 -35 31 -39
49 -19 76 24 33 119 45 155 20z m6152 -125 c0 -90 -3 -128 -11 -124 -16 10 -9
255 7 255 2 0 4 -59 4 -131z m1831 -18 c60 -60 109 -112 109 -115 0 -3 -9 -6
-20 -6 -11 0 -20 7 -20 15 0 9 -8 19 -17 22 -23 8 -58 43 -66 66 -3 9 -13 17
-21 17 -8 0 -18 9 -21 20 -3 11 -12 20 -20 20 -7 0 -15 9 -18 20 -3 11 -12 20
-21 20 -9 0 -16 7 -16 15 0 30 24 13 131 -94z m-7821 4 c8 -10 11 -51 10 -132
-1 -65 -2 -219 -1 -343 0 -124 -2 -252 -5 -285 -4 -33 -6 -80 -5 -105 1 -52
-9 -153 -15 -148 -2 2 -8 64 -13 136 -6 73 -17 156 -25 185 -8 28 -20 126 -26
217 -6 91 -16 180 -22 199 -14 45 -4 142 17 157 8 6 19 32 24 58 12 67 36 91
61 61z m7958 -154 c3 -8 -1 -12 -9 -9 -7 2 -15 10 -17 17 -3 8 1 12 9 9 7 -2
15 -10 17 -17z m-22928 -85 c0 -12 -5 -16 -16 -12 -9 3 -20 6 -25 6 -5 0 -9
11 -9 24 0 22 2 23 25 13 14 -7 25 -20 25 -31z m14550 -33 c9 -8 -33 -33 -56
-33 -12 0 -27 7 -34 15 -10 12 -8 16 11 24 22 9 67 6 79 -6z m250 -15 c0 -7
-5 -33 -10 -58 -20 -88 -42 -107 -88 -74 -17 12 -22 25 -22 63 0 44 3 49 33
63 40 19 87 22 87 6z m13223 -36 c19 -44 22 -66 7 -57 -5 3 -10 15 -10 26 0
10 -6 19 -14 19 -18 0 -39 27 -31 40 13 20 31 9 48 -28z m-23 -319 c6 -16 14
-36 20 -45 16 -27 26 -133 12 -124 -7 4 -12 25 -12 47 0 21 -4 39 -10 39 -13
0 -26 28 -34 73 -8 44 9 51 24 10z m-29598 -234 c-1 -45 -5 -85 -8 -88 -12
-12 -24 28 -24 79 0 67 9 102 24 97 7 -3 10 -32 8 -88z m27894 -16 c32 -15 66
-36 76 -47 59 -72 76 -97 101 -148 16 -32 41 -70 57 -85 46 -43 52 -113 9
-113 -31 0 -79 41 -79 67 0 13 -6 23 -14 23 -8 0 -19 14 -25 31 -6 18 -27 51
-46 75 -19 23 -35 46 -35 51 0 5 -17 27 -38 48 -21 22 -41 48 -45 58 -3 9 -11
17 -17 17 -5 0 -10 6 -10 13 0 8 -10 19 -22 25 -23 11 -23 11 3 11 15 1 53
-11 85 -26z m1781 -35 c-3 -7 -5 -2 -5 12 0 14 2 19 5 13 2 -7 2 -19 0 -25z
m-28127 -64 c0 -7 -9 -18 -21 -24 -41 -22 -67 31 -32 65 16 16 18 16 35 -5 10
-12 18 -28 18 -36z m28170 -50 c0 -8 -4 -12 -10 -9 -5 3 -10 10 -10 16 0 5 5
9 10 9 6 0 10 -7 10 -16z m-3912 -256 c4 -34 -13 -36 -45 -6 -32 30 -29 40 10
36 27 -2 33 -8 35 -30z m2546 -27 c29 -31 42 -272 21 -375 -9 -44 -19 -84 -21
-88 -17 -28 -89 16 -103 62 -27 92 -31 130 -21 197 5 37 10 93 10 123 0 60 5
71 35 88 30 17 60 14 79 -7z m-26853 -292 c9 -17 8 -23 -2 -30 -26 -16 -39 -9
-39 21 0 36 24 41 41 9z m27486 -336 c-3 -10 -5 -4 -5 12 0 17 2 24 5 18 2 -7
2 -21 0 -30z m-12737 -3 c0 -5 -9 -10 -20 -10 -11 0 -20 5 -20 10 0 6 9 10 20
10 11 0 20 -4 20 -10z m-50 -35 c0 -8 -7 -15 -15 -15 -16 0 -20 12 -8 23 11
12 23 8 23 -8z m90 -40 c0 -7 -13 -18 -30 -25 -31 -13 -37 -24 -20 -35 17 -10
9 -125 -8 -125 -24 0 -42 103 -22 124 5 4 6 23 3 40 -4 28 -1 33 24 42 30 11
53 2 53 -21z m6600 -25 c0 -13 -7 -20 -20 -20 -19 0 -27 20 -13 33 13 14 33 6
33 -13z m-275 -10 c4 -6 -5 -10 -20 -10 -15 0 -24 4 -20 10 3 6 12 10 20 10 8
0 17 -4 20 -10z m-3621 -23 c21 -12 43 -32 47 -45 7 -19 4 -24 -19 -33 -39
-15 -78 0 -75 30 2 12 -1 30 -7 40 -9 17 -5 31 9 31 3 0 24 -10 45 -23z
m11096 -13 c11 -12 10 -18 -3 -32 -16 -15 -18 -15 -34 0 -13 14 -14 20 -3 32
7 9 16 16 20 16 4 0 13 -7 20 -16z m-11292 -98 c6 -29 -5 -45 -27 -39 -21 5
-38 54 -26 73 9 15 49 -11 53 -34z m-21575 -3 c-7 -2 -19 -2 -25 0 -7 3 -2 5
12 5 14 0 19 -2 13 -5z m22021 -26 c16 -11 17 -17 7 -36 -10 -19 -19 -22 -59
-19 -48 3 -62 18 -48 54 7 18 76 19 100 1z m-17764 -28 c0 -10 -4 -19 -10 -19
-5 0 -10 12 -10 26 0 14 4 23 10 19 6 -3 10 -15 10 -26z m14770 -4 c10 -12 10
-18 0 -30 -7 -8 -16 -15 -20 -15 -12 0 -20 28 -14 45 4 8 10 15 14 15 4 0 13
-7 20 -15z m12856 -143 c-12 -11 -14 4 -7 58 l6 55 3 -54 c2 -29 1 -56 -2 -59z
m-12848 2 c-5 -7 -11 -36 -15 -65 -3 -30 -11 -63 -18 -74 -7 -11 -16 -35 -19
-52 -4 -17 -13 -37 -21 -43 -8 -6 -17 -25 -20 -41 -5 -20 -13 -29 -27 -29 -18
0 -20 4 -14 32 3 17 13 39 20 47 8 9 18 30 22 46 3 17 14 38 23 48 9 12 18 48
22 97 8 97 16 111 39 73 11 -17 14 -32 8 -39z m1806 -33 c19 -7 19 -8 -2 -29
-39 -39 -102 -22 -102 27 0 12 75 14 104 2z m630 3 c24 -9 19 -41 -6 -47 -32
-8 -157 8 -192 24 l-29 14 24 6 c31 9 182 11 203 3z m-2570 -300 c8 -22 -11
-54 -29 -48 -18 7 -19 18 -5 45 13 23 26 24 34 3z m-7910 -48 c-9 -15 -19 -25
-21 -22 -3 2 3 16 13 30 9 15 19 25 21 22 3 -2 -3 -16 -13 -30z m-11379 -127
c0 -8 -10 -15 -23 -17 -24 -4 -38 18 -28 44 6 15 9 15 29 1 12 -8 22 -21 22
-28z m25651 -53 c6 -27 -3 -66 -16 -66 -9 0 -20 35 -20 68 0 30 28 29 36 -2z
m8528 -371 c37 -56 -40 -118 -78 -63 -23 33 -20 46 17 68 41 25 41 25 61 -5z
m-29568 -100 c8 -31 -1 -55 -20 -55 -18 0 -25 39 -11 63 14 24 24 21 31 -8z
m-1626 -320 c19 -14 39 -25 45 -25 7 0 20 -9 30 -20 12 -13 31 -20 55 -20 24
0 43 7 55 20 21 24 72 27 100 6 18 -13 19 -17 5 -53 -7 -21 -16 -56 -19 -78
-8 -56 -34 -67 -141 -62 -78 5 -86 7 -107 34 -13 15 -28 44 -34 63 -7 19 -20
46 -30 59 -26 33 -25 101 1 101 3 0 21 -11 40 -25z m16148 -85 c4 -24 -23 -54
-42 -47 -19 7 -22 53 -3 60 20 9 42 3 45 -13z m-7792 -358 c6 -4 14 -17 18
-29 6 -20 4 -23 -19 -23 -27 0 -41 20 -31 45 6 16 15 19 32 7z m20574 -152 c0
-24 -41 -37 -73 -23 -21 10 -21 10 8 26 41 22 65 21 65 -3z m-26395 -290 c0
-20 -42 -31 -55 -14 -10 11 -10 17 0 28 13 17 55 6 55 -14z m-1680 -120 c0 -9
-11 -16 -27 -18 -27 -3 -38 14 -21 32 12 12 48 2 48 -14z m2294 -24 c9 -10 8
-16 -4 -26 -19 -16 -41 1 -32 24 8 20 21 20 36 2z m26835 -2 c9 -22 8 -24 -9
-24 -8 0 -15 9 -15 20 0 24 15 27 24 4z m-29763 -4 c10 -6 19 -19 19 -29 0
-35 -41 -51 -93 -38 -23 6 -28 12 -25 34 4 36 59 54 99 33z m29261 -106 c10
-21 9 -27 -3 -35 -23 -15 -42 -6 -50 23 -4 15 -4 29 -1 32 14 15 44 4 54 -20z
m-2108 -143 c3 -4 -5 -18 -18 -30 l-24 -23 -31 23 c-17 12 -28 26 -25 31 7 11
91 11 98 -1z m490 -133 c13 -21 2 -43 -30 -64 -26 -18 -27 -17 -45 5 -24 29
-24 32 1 64 16 20 25 24 42 18 12 -4 26 -15 32 -23z m475 -160 c10 -26 -3 -48
-28 -48 -30 0 -44 16 -37 44 8 34 53 37 65 4z m-27443 -55 c23 -9 5 -23 -30
-23 -19 0 -52 -7 -75 -15 -23 -8 -72 -18 -109 -21 -40 -4 -85 -16 -112 -30
-25 -13 -57 -24 -71 -24 -15 0 -46 -7 -69 -15 -23 -8 -76 -15 -116 -15 -71 0
-74 1 -80 27 -10 37 17 53 85 53 34 0 91 11 146 29 49 16 126 34 170 39 77 10
231 7 261 -5z m21263 -179 c27 -34 27 -80 2 -94 -27 -14 -44 -5 -65 35 -18 32
-18 36 -2 60 21 32 39 32 65 -1z m-22461 -54 c6 -41 20 -48 105 -56 92 -8 87
-12 -40 -39 -57 -13 -98 -16 -135 -11 -61 9 -62 9 -105 0 -47 -9 -67 0 -53 26
6 11 18 20 28 20 27 0 122 52 133 73 16 28 63 19 67 -13z m27295 24 c10 -10
-22 -51 -43 -57 -30 -8 -34 11 -8 38 23 25 39 31 51 19z m3073 -51 c26 -35 12
-103 -21 -103 -21 0 -55 41 -55 65 0 16 9 29 28 39 34 19 32 19 48 -1z m-7983
-42 c15 -16 27 -31 27 -34 0 -3 -14 -10 -30 -16 -29 -10 -80 -1 -80 15 0 10
41 64 48 64 4 0 19 -13 35 -29z m-24703 -187 c85 -4 138 -10 143 -17 6 -9 10
-9 14 1 6 16 34 15 69 -3 16 -8 39 -15 52 -15 14 0 21 -4 17 -11 -4 -6 -37
-10 -78 -9 -40 1 -389 1 -777 1 -618 -1 -1034 8 -1081 23 -8 2 -27 7 -43 11
-50 11 -17 20 97 27 122 7 1369 1 1587 -8z m370 -44 c0 -5 -9 -10 -19 -10 -11
0 -23 5 -26 10 -4 6 5 10 19 10 14 0 26 -4 26 -10z"/>
<path d="M9083 10623 c-21 -8 -15 -22 26 -63 37 -37 43 -40 96 -40 65 0 95 13
95 40 0 11 -3 20 -7 20 -5 0 -21 11 -37 25 -25 21 -38 25 -95 24 -36 0 -72 -3
-78 -6z"/>
<path d="M1610 10322 c-31 -14 -157 -153 -169 -186 -2 -6 -12 -23 -22 -38 -11
-14 -19 -38 -19 -52 0 -23 4 -26 34 -26 25 0 44 10 77 41 66 61 83 70 138 71
62 2 78 -11 86 -70 4 -26 11 -60 16 -77 5 -16 13 -73 19 -125 5 -52 17 -133
25 -180 8 -47 19 -116 24 -155 6 -38 20 -109 31 -157 12 -48 29 -125 40 -170
21 -97 45 -193 65 -263 7 -27 16 -68 20 -90 3 -22 12 -60 20 -85 8 -25 16 -61
19 -80 3 -19 11 -53 19 -75 8 -22 18 -60 21 -85 8 -47 22 -104 61 -235 13 -44
33 -118 45 -165 12 -47 30 -114 41 -150 10 -36 30 -121 43 -190 14 -69 31
-150 39 -180 9 -30 23 -91 32 -135 9 -44 25 -109 35 -145 11 -36 31 -114 45
-175 15 -60 33 -127 41 -149 8 -21 30 -100 49 -175 18 -75 47 -188 63 -251 16
-63 34 -137 40 -165 23 -103 74 -302 93 -360 11 -33 19 -69 19 -80 0 -12 4
-25 9 -30 5 -6 16 -35 24 -65 26 -102 59 -214 89 -305 17 -49 36 -117 44 -150
7 -33 27 -107 44 -164 17 -57 35 -125 40 -150 25 -123 41 -188 49 -206 10 -20
46 -147 61 -215 5 -19 22 -75 39 -124 17 -49 31 -96 31 -103 0 -8 12 -39 26
-68 14 -30 22 -60 19 -65 -4 -6 0 -22 9 -35 9 -13 16 -35 16 -49 0 -14 5 -36
11 -50 10 -21 14 -23 30 -13 29 18 25 46 -27 207 -9 25 -17 54 -19 65 -10 50
-35 177 -49 250 -38 198 -73 346 -97 400 -4 11 -13 49 -20 85 -6 36 -17 79
-24 95 -7 17 -17 48 -20 70 -4 22 -12 45 -17 52 -5 6 -13 39 -19 74 -6 35 -24
93 -41 128 -20 43 -34 91 -40 145 -6 45 -15 87 -20 94 -14 16 -58 142 -58 164
0 9 -14 56 -31 105 -17 48 -40 124 -50 168 -29 126 -40 168 -54 200 -18 43
-55 195 -71 295 -8 47 -23 119 -35 160 -12 41 -27 112 -35 158 -7 46 -20 107
-28 135 -8 29 -18 77 -21 107 -4 30 -12 71 -17 90 -6 19 -17 64 -24 100 -7 36
-22 101 -33 145 -11 44 -27 109 -36 145 -9 36 -22 85 -30 110 -8 25 -17 65
-20 90 -4 25 -16 71 -26 102 -10 32 -19 70 -19 86 0 15 -4 32 -9 38 -5 5 -16
43 -24 84 -16 83 -41 189 -62 265 -24 84 -47 187 -56 246 -4 31 -13 69 -19 85
-11 28 -31 120 -52 239 -6 33 -19 89 -29 124 -11 35 -19 83 -19 105 -1 23 -7
59 -15 81 -8 22 -17 67 -21 100 -3 33 -12 83 -19 110 -8 28 -19 96 -24 151 -6
56 -15 114 -21 129 -16 42 -18 241 -2 256 18 19 15 57 -5 67 -10 5 -45 13 -78
17 -34 4 -70 15 -84 26 -28 23 -63 23 -111 1z"/>
<path d="M6097 7843 c-8 -17 -12 -48 -9 -79 4 -48 5 -51 29 -46 24 5 25 7 19
56 -3 28 -6 61 -6 74 0 30 -17 28 -33 -5z"/>
<path d="M6130 7540 c0 -5 5 -10 10 -10 6 0 10 5 10 10 0 6 -4 10 -10 10 -5 0
-10 -4 -10 -10z"/>
<path d="M6021 7533 c-1 -6 -4 -20 -7 -30 -5 -17 -5 -17 6 0 6 10 9 23 6 30
-3 9 -5 9 -5 0z"/>
<path d="M6140 7420 c0 -5 5 -10 10 -10 6 0 10 5 10 10 0 6 -4 10 -10 10 -5 0
-10 -4 -10 -10z"/>
<path d="M5632 5807 c-12 -13 -22 -33 -22 -45 0 -12 -9 -26 -20 -32 -11 -6
-20 -18 -20 -28 -1 -9 -14 -42 -30 -72 -17 -30 -30 -60 -30 -67 0 -6 -8 -18
-19 -25 -10 -7 -22 -28 -25 -46 -4 -17 -12 -32 -17 -32 -6 0 -7 5 -4 10 3 6 1
10 -5 10 -6 0 -8 5 -5 10 3 6 3 10 -2 10 -16 0 -52 -66 -64 -115 -6 -27 -26
-77 -44 -110 -17 -33 -37 -82 -44 -110 -7 -27 -25 -70 -41 -95 -15 -25 -35
-79 -45 -120 -9 -41 -25 -88 -35 -105 -10 -17 -33 -69 -50 -115 -17 -47 -37
-98 -45 -115 -7 -16 -34 -85 -59 -152 -25 -67 -50 -130 -55 -140 -5 -10 -25
-61 -43 -113 -17 -52 -38 -106 -45 -120 -7 -14 -13 -29 -13 -35 0 -5 -14 -44
-31 -85 -17 -41 -46 -115 -64 -165 -18 -49 -40 -103 -49 -120 -9 -16 -16 -37
-16 -46 0 -8 -7 -24 -15 -35 -8 -10 -15 -25 -15 -32 0 -12 -33 -95 -76 -189
-8 -17 -14 -36 -14 -41 0 -24 -140 -271 -176 -312 -133 -150 -152 -159 -330
-160 -128 0 -242 14 -360 45 -78 20 -138 19 -160 -2 -14 -14 -16 -30 -11 -91
3 -40 10 -79 16 -86 6 -7 15 -42 20 -78 5 -36 16 -77 24 -89 9 -13 19 -41 22
-62 4 -20 16 -54 26 -74 11 -21 19 -53 20 -73 1 -61 46 -129 109 -162 61 -33
47 -32 325 -9 213 18 242 26 330 85 44 30 93 57 110 61 31 7 84 59 85 83 0 8
18 51 39 95 22 45 51 116 66 157 15 41 33 86 40 100 7 14 16 41 20 60 4 19 13
46 20 60 15 28 39 98 61 175 7 28 18 59 22 70 31 71 55 135 62 165 10 42 37
122 58 170 8 19 18 51 23 70 10 45 37 123 60 176 11 23 19 50 19 60 1 10 9 37
20 59 11 22 19 47 20 55 0 9 9 33 20 55 11 22 20 47 20 57 0 10 8 37 19 60 44
100 53 123 61 162 5 23 23 84 40 136 18 52 50 151 72 220 75 234 89 275 102
295 7 11 16 38 20 60 4 21 14 52 22 67 8 15 14 35 14 45 0 10 8 35 19 56 10
20 22 58 26 84 4 27 13 55 20 63 7 8 15 36 18 63 4 26 13 57 21 70 24 36 41
437 20 444 -6 2 -20 -7 -32 -20z"/>
<path d="M9090 12391 c0 -18 17 -20 36 -6 18 14 18 14 -8 15 -16 0 -28 -4 -28
-9z"/>
<path d="M36700 12390 c0 -5 -9 -10 -20 -10 -19 0 -20 -7 -20 -100 0 -93 -1
-100 -20 -100 -15 0 -20 -7 -20 -29 0 -16 -2 -35 -5 -43 -3 -7 5 -17 17 -23
19 -8 24 -19 26 -57 2 -27 7 -48 13 -48 19 0 8 -48 -16 -66 -23 -17 -23 -20
-10 -41 8 -12 15 -29 15 -38 0 -8 5 -24 10 -35 6 -11 15 -29 20 -40 6 -11 10
-29 10 -40 0 -13 7 -20 20 -20 18 0 20 -7 20 -57 0 -40 5 -62 18 -76 9 -10 17
-33 17 -51 0 -24 5 -32 20 -34 24 -3 54 -42 32 -42 -9 0 -12 -11 -9 -35 3 -27
11 -39 33 -51 30 -15 36 -28 18 -39 -15 -10 29 -55 53 -55 11 0 18 -7 18 -19
0 -21 12 -44 53 -108 15 -24 27 -49 27 -56 0 -8 9 -22 20 -32 11 -10 20 -31
20 -47 0 -18 6 -31 18 -35 26 -10 42 -30 42 -52 0 -12 6 -21 14 -21 31 0 36
-74 6 -90 -11 -6 -20 -16 -20 -22 0 -6 -8 -16 -17 -23 -16 -12 -16 -15 10 -40
18 -18 33 -26 47 -22 14 4 26 -3 40 -23 11 -16 29 -32 40 -35 13 -4 20 -15 20
-31 0 -26 7 -29 43 -15 27 11 39 5 56 -26 7 -14 21 -23 35 -23 13 0 35 -9 49
-20 14 -11 35 -20 46 -20 11 0 26 -9 33 -20 7 -11 19 -20 26 -20 16 0 116 -52
120 -62 2 -5 19 -15 38 -23 19 -8 34 -18 34 -24 0 -5 14 -12 31 -16 17 -4 33
-13 36 -21 2 -7 15 -16 26 -20 12 -4 54 -32 94 -63 39 -31 108 -83 152 -116
85 -63 261 -223 261 -237 0 -5 16 -23 35 -41 19 -17 35 -35 35 -39 0 -4 29
-38 65 -75 36 -37 67 -75 70 -83 3 -8 26 -31 52 -50 73 -54 271 -260 278 -289
4 -14 22 -45 41 -68 19 -23 46 -65 61 -95 14 -29 39 -70 55 -90 35 -44 72
-152 63 -185 -5 -20 -9 -22 -25 -13 -11 6 -20 19 -20 30 0 11 -12 30 -26 44
-16 14 -24 30 -21 39 4 10 -4 22 -19 32 -19 12 -24 23 -20 38 7 29 -1 40 -44
62 -50 26 -59 38 -55 78 2 20 0 39 -4 41 -4 3 -8 -5 -8 -16 -1 -12 -9 -28 -17
-37 -14 -14 -17 -13 -29 3 -8 10 -12 28 -10 40 6 34 -10 50 -36 37 -25 -14
-29 -66 -6 -75 9 -3 15 -18 15 -37 0 -22 5 -32 20 -36 14 -4 20 -14 20 -35 0
-16 9 -41 20 -55 11 -14 20 -34 20 -43 0 -10 11 -25 25 -34 20 -13 23 -22 19
-46 -5 -21 0 -36 15 -56 11 -15 21 -40 21 -57 0 -27 2 -29 30 -24 l30 6 -7
-44 c-4 -34 -2 -50 10 -63 9 -9 17 -36 19 -60 3 -47 17 -56 34 -23 18 36 21
34 38 -17 13 -39 23 -52 42 -56 14 -4 32 -2 39 4 13 11 8 63 -5 55 -4 -3 -10
4 -13 15 -3 11 -1 20 4 20 5 0 9 9 9 20 0 21 -19 28 -21 8 -1 -11 -11 45 -35
205 -6 36 -5 38 17 35 16 -2 25 -11 27 -27 2 -13 12 -37 23 -55 10 -17 19 -44
19 -59 0 -16 4 -26 9 -23 5 3 14 -1 21 -9 13 -16 0 -36 -30 -48 -10 -3 -5 -9
18 -18 17 -8 32 -18 32 -23 0 -5 8 -18 17 -28 14 -16 15 -23 5 -38 -17 -28
-15 -71 4 -85 15 -10 15 -13 -1 -28 -11 -12 -15 -26 -11 -42 5 -21 12 -25 46
-25 40 0 40 0 40 -39 0 -36 4 -41 38 -58 31 -15 36 -22 34 -45 -2 -20 2 -28
20 -33 13 -4 46 -31 74 -61 38 -41 58 -54 79 -54 16 0 39 -9 51 -21 20 -19 26
-19 63 -8 33 10 46 10 66 -1 19 -10 28 -10 38 -1 11 9 21 8 43 -4 16 -8 50
-15 76 -15 57 0 92 -25 63 -46 -14 -10 3 -12 97 -11 160 2 338 -5 371 -14 l27
-8 0 2240 0 2239 -1890 0 c-1253 0 -1890 -3 -1890 -10z m469 -1644 c6 -7 9
-20 6 -29 -8 -20 -55 1 -55 26 0 21 33 23 49 3z"/>
<path d="M12137 10213 c-14 -13 -6 -100 13 -156 11 -31 20 -63 20 -71 0 -21
37 -39 64 -32 11 3 29 19 39 36 19 32 15 64 -19 128 -8 15 -14 32 -14 39 0 34
-82 78 -103 56z"/>
<path d="M37602 9979 c3 -8 15 -19 27 -25 30 -15 352 -340 382 -386 13 -20 59
-81 102 -137 42 -55 77 -104 77 -109 0 -5 14 -23 30 -40 17 -18 30 -41 30 -52
0 -10 8 -24 19 -29 12 -7 20 -26 24 -55 4 -25 12 -55 19 -66 11 -16 10 -22 -7
-34 -17 -13 -18 -18 -7 -36 14 -23 1 -60 -21 -60 -9 0 -9 -2 1 -8 19 -12 53
-82 63 -127 14 -69 39 -159 50 -178 6 -12 6 -24 -1 -36 -5 -11 -7 -39 -4 -64
4 -24 2 -47 -2 -50 -17 -9 -54 13 -64 38 -6 15 -17 25 -29 25 -10 0 -24 7 -31
15 -7 8 -27 15 -44 15 -27 0 -37 -7 -58 -39 -29 -45 -40 -108 -27 -157 8 -26
14 -32 31 -29 11 3 18 2 16 -1 -3 -2 7 -18 23 -35 27 -29 29 -30 96 -23 37 4
71 12 76 18 5 8 9 8 15 0 4 -6 22 -15 41 -19 19 -4 51 -23 70 -42 40 -39 69
-53 111 -53 38 0 42 15 29 135 -20 197 -36 283 -58 308 -5 7 -15 47 -22 88 -6
40 -21 92 -32 114 -11 22 -19 55 -18 74 1 19 -5 41 -14 51 -10 11 -12 20 -6
24 6 4 3 27 -10 63 -10 31 -19 64 -19 75 0 10 -4 18 -9 18 -5 0 -14 20 -20 44
-6 24 -17 49 -26 56 -8 7 -15 19 -15 27 0 8 -9 31 -20 51 -10 20 -22 44 -25
52 -3 8 -17 33 -30 55 -13 22 -32 54 -41 70 -33 59 -103 141 -182 215 -130
121 -152 140 -163 140 -6 0 -22 9 -36 20 -14 11 -32 20 -39 20 -7 0 -19 9 -27
20 -9 13 -20 18 -31 14 -10 -4 -26 1 -39 13 -34 31 -163 57 -155 32z m738
-892 c0 -18 -2 -19 -10 -7 -13 20 -13 43 0 35 6 -3 10 -16 10 -28z"/>
<path d="M38130 9940 c0 -5 5 -10 11 -10 5 0 7 5 4 10 -3 6 -8 10 -11 10 -2 0
-4 -4 -4 -10z"/>
<path d="M38170 9900 c0 -5 5 -10 11 -10 5 0 7 5 4 10 -3 6 -8 10 -11 10 -2 0
-4 -4 -4 -10z"/>
<path d="M38210 9850 c6 -11 13 -20 15 -20 3 0 5 9 5 20 0 11 -7 20 -15 20
-13 0 -14 -4 -5 -20z"/>
<path d="M38250 9813 c0 -5 5 -15 10 -23 8 -12 10 -11 10 8 0 12 -4 22 -10 22
-5 0 -10 -3 -10 -7z"/>
<path d="M38290 9750 c0 -11 7 -23 15 -26 8 -4 15 -12 15 -19 0 -6 9 -20 20
-30 11 -10 22 -27 26 -39 3 -11 12 -28 19 -36 28 -32 136 -245 147 -289 7 -25
16 -51 21 -58 19 -26 47 -88 47 -104 0 -9 14 -31 32 -49 l31 -33 -21 -18 c-23
-18 -31 -72 -13 -84 5 -3 13 -36 16 -73 4 -37 13 -92 21 -122 8 -30 14 -82 14
-116 0 -34 5 -86 10 -115 6 -30 13 -125 15 -212 5 -156 5 -158 -18 -181 -19
-19 -40 -26 -92 -31 -94 -10 -219 -1 -247 19 -33 23 -45 20 -104 -24 -46 -35
-62 -41 -121 -46 -70 -6 -121 5 -127 28 -2 7 -10 36 -19 63 -9 28 -19 84 -23
125 -3 41 -13 88 -20 104 -8 17 -17 48 -20 70 -8 52 -52 146 -69 146 -7 0 -16
16 -19 35 -5 24 -11 32 -21 29 -11 -4 -12 -12 -4 -32 6 -15 14 -29 17 -32 4
-3 13 -30 20 -60 7 -30 15 -65 18 -76 6 -21 4 -21 -53 7 -62 31 -103 61 -103
77 0 6 -9 21 -20 34 -11 12 -34 46 -52 73 -100 158 -135 202 -268 335 -80 80
-161 158 -182 173 -20 15 -42 32 -50 39 -7 7 -33 26 -58 42 -25 16 -56 37 -70
46 -14 10 -37 21 -50 25 -14 4 -31 12 -38 18 -19 15 -107 46 -172 61 -31 8
-65 18 -75 24 -11 7 -54 16 -95 22 -126 16 -220 30 -320 47 -153 25 -274 32
-630 32 -184 1 -429 5 -545 11 -320 15 -518 13 -562 -5 -19 -8 -56 -15 -82
-15 -68 -1 -116 -14 -147 -43 -15 -14 -33 -23 -40 -20 -18 7 -63 -28 -64 -50
0 -10 -8 -20 -17 -24 -10 -3 -40 -22 -67 -41 -30 -21 -62 -34 -82 -35 -18 -1
-36 -7 -38 -14 -3 -7 -11 -13 -19 -13 -7 0 -27 -16 -45 -35 -17 -20 -32 -35
-34 -35 -2 1 -11 -2 -20 -5 -22 -9 -24 -45 -3 -45 8 0 15 -4 15 -9 0 -15 103
-3 115 12 6 8 27 17 48 21 21 4 37 13 37 20 0 8 12 19 28 25 15 5 38 17 52 24
14 8 38 21 54 28 50 24 66 33 66 41 0 5 5 8 12 8 6 0 19 6 27 14 22 20 120 56
136 50 7 -3 34 9 61 25 26 17 54 31 62 31 7 0 10 5 7 11 -5 7 53 8 192 4 109
-3 207 -6 218 -6 11 -1 54 -5 95 -10 41 -5 95 -9 120 -10 79 -2 258 -27 319
-45 21 -7 -5 -32 -48 -45 -22 -7 -177 -14 -391 -18 -335 -7 -358 -9 -404 -29
-27 -12 -59 -22 -71 -22 -12 0 -41 -14 -64 -30 -27 -20 -49 -29 -61 -25 -10 3
-33 -1 -49 -9 -17 -9 -42 -16 -56 -16 -29 0 -77 -44 -69 -64 6 -16 -12 -30
-58 -45 -27 -9 -38 -18 -38 -32 0 -10 6 -20 13 -20 6 -1 -14 -5 -45 -10 -31
-4 -74 -17 -95 -28 -38 -20 -114 -88 -145 -132 -40 -55 -68 -101 -68 -111 0
-6 -6 -19 -13 -27 -20 -24 -67 -174 -67 -215 0 -20 -4 -36 -10 -36 -5 0 -9
-15 -8 -32 1 -18 0 -39 -3 -47 -2 -7 2 -16 9 -18 8 -3 12 5 12 22 0 18 6 29
19 32 19 5 41 42 41 70 0 21 61 144 121 246 58 97 118 162 166 178 19 6 47 17
61 25 15 8 43 14 62 14 19 1 53 8 75 16 33 13 144 18 678 26 716 12 661 17
679 -64 6 -25 12 -333 15 -758 2 -433 8 -719 13 -724 10 -10 377 -9 393 1 5 3
536 9 1180 14 645 5 1195 13 1222 18 28 4 104 19 170 32 97 19 146 24 254 21
129 -2 136 -3 183 -32 26 -17 51 -30 55 -30 3 0 15 -7 25 -17 15 -13 25 -14
56 -6 20 5 57 8 82 7 25 -1 62 -2 83 -3 30 -1 37 -5 37 -21 0 -11 -6 -20 -12
-21 -7 -1 -31 -2 -53 -4 -22 -1 -83 -8 -135 -14 -52 -7 -138 -12 -190 -13 -78
0 -98 -4 -112 -18 -14 -15 -33 -18 -97 -18 -44 0 -89 -3 -101 -7 -24 -7 -27
-45 -4 -45 8 0 22 -7 30 -15 13 -13 11 -19 -20 -50 -21 -21 -38 -49 -42 -71
-4 -24 -14 -39 -30 -46 -29 -14 -22 -28 14 -28 36 0 49 10 53 39 4 27 17 35
38 22 10 -7 11 -13 1 -30 -14 -27 1 -51 32 -51 11 0 16 -4 12 -11 -3 -6 -20
-9 -36 -7 -16 3 -31 1 -34 -4 -10 -16 -71 -36 -96 -31 -14 3 -35 0 -47 -7 -12
-6 -67 -11 -124 -11 -56 -1 -106 -3 -111 -7 -5 -3 -26 -6 -45 -6 -29 -1 -37
-5 -39 -23 -2 -16 3 -22 25 -27 26 -5 114 -6 223 -3 25 0 149 0 275 -2 127 -1
548 -2 938 -2 l707 1 0 446 c0 392 -2 445 -15 440 -8 -3 -75 -10 -147 -16 -73
-6 -176 -18 -228 -25 -113 -17 -177 -23 -330 -30 -63 -3 -120 -10 -126 -16 -7
-6 -88 -15 -181 -21 -113 -7 -173 -15 -183 -23 -9 -9 -62 -18 -135 -24 -66 -5
-132 -12 -146 -16 -15 -4 -41 0 -62 9 -31 12 -37 20 -37 45 0 17 11 42 26 60
25 30 41 36 154 62 30 6 66 20 80 29 20 14 39 17 99 12 54 -3 75 -1 81 8 13
21 1 38 -33 43 -23 3 -36 -2 -52 -19 -30 -33 -35 -30 -35 15 0 31 -4 41 -20
46 -12 4 -27 2 -34 -4 -11 -9 -14 0 -19 46 -3 31 -14 68 -25 82 -17 24 -39 88
-64 186 -6 22 -21 63 -34 90 -13 28 -24 61 -24 73 0 12 -6 33 -14 45 -8 12
-18 43 -21 69 -4 26 -13 49 -21 52 -8 3 -14 11 -14 19 0 7 -9 31 -20 52 -12
22 -26 59 -32 83 -5 23 -14 42 -19 42 -5 0 -14 20 -20 45 -6 24 -17 50 -25 56
-8 6 -14 18 -14 25 0 8 -11 24 -25 36 -14 12 -25 27 -25 35 0 22 -44 107 -62
121 -11 8 -18 26 -18 46 0 20 -6 36 -14 39 -8 3 -17 19 -21 35 -3 17 -13 33
-21 36 -8 3 -14 16 -14 28 0 13 -7 34 -15 48 -8 14 -19 37 -25 52 -6 14 -18
29 -26 32 -8 3 -14 13 -14 21 0 23 -48 102 -65 109 -8 3 -15 16 -15 29 0 13
-9 32 -20 42 -11 10 -20 24 -20 32 0 7 -7 13 -15 13 -9 0 -15 9 -15 21 0 12
-8 23 -19 26 -11 3 -22 16 -25 29 -8 29 -26 32 -26 4z m-3833 -634 c6 -3 21 4
32 16 12 12 21 17 21 11 0 -6 14 -16 30 -23 36 -15 34 -20 -12 -25 -18 -2 -58
-7 -90 -11 -66 -8 -131 2 -125 19 2 7 20 15 41 18 20 3 42 11 48 17 9 9 16 8
27 -2 9 -7 21 -16 28 -20z m3114 -557 c20 -5 54 -23 75 -40 31 -24 41 -41 51
-82 13 -58 5 -77 -31 -77 -25 0 -94 35 -118 60 -9 9 -37 34 -62 54 -50 42 -64
69 -46 91 13 15 54 13 131 -6z"/>
<path d="M19958 9621 c-43 -27 -138 -137 -152 -176 -5 -11 -15 -155 -24 -320
-12 -227 -16 -547 -17 -1320 -1 -1052 3 -1239 33 -1328 16 -50 19 -52 57 -55
82 -8 279 19 400 54 156 45 165 54 165 167 0 49 -7 100 -16 127 -14 40 -16
155 -16 1025 0 539 2 1001 5 1026 4 46 54 132 82 143 7 2 518 8 1136 12 1003
7 1110 10 994 21 -93 9 -133 17 -141 28 -15 20 -43 19 -65 -1 -19 -17 -39 -11
-39 11 0 25 -37 36 -98 29 -45 -5 -62 -3 -73 8 -9 9 -46 18 -93 22 -63 6 -86
12 -108 31 -26 22 -35 24 -89 18 -45 -4 -59 -3 -59 7 0 10 -15 11 -62 7 -41
-4 -56 -3 -43 3 14 6 8 8 -20 4 -22 -3 -53 0 -70 6 -32 12 -33 10 22 48 10 7
29 18 42 25 41 20 37 37 -8 37 -23 0 -41 5 -41 10 0 6 -9 10 -20 10 -13 0 -20
7 -20 20 0 18 7 20 59 20 32 0 77 6 99 14 22 8 49 12 59 10 11 -3 26 3 37 15
11 12 31 21 46 21 15 0 33 7 40 15 19 23 40 18 40 -10 0 -30 11 -32 35 -5 10
11 28 20 40 20 12 0 30 9 40 20 17 19 17 21 1 39 -18 20 33 18 -841 36 -132 3
-294 8 -360 10 -450 16 -665 17 -694 5 -42 -17 -78 -6 -96 30 -19 37 -82 80
-115 79 -14 0 -37 -8 -52 -18z m1642 -411 c0 -28 -2 -30 -40 -30 -36 0 -40 3
-40 24 0 25 13 33 58 35 18 1 22 -4 22 -29z m380 -95 c0 -8 -6 -15 -14 -15 -8
0 -20 -2 -28 -3 -7 -2 -10 -2 -5 0 4 3 7 11 7 19 0 8 9 14 20 14 11 0 20 -7
20 -15z"/>
<path d="M12835 9588 c-168 -10 -185 -20 -185 -100 0 -42 4 -53 31 -77 39 -36
43 -70 30 -226 -19 -220 -30 -485 -46 -1095 -15 -592 -29 -1065 -42 -1445 -3
-104 -6 -208 -7 -230 -1 -49 24 -59 58 -23 39 41 147 132 190 161 22 16 45 35
49 43 4 8 12 14 17 14 5 0 38 27 72 60 35 33 69 60 77 60 7 0 26 11 43 25 16
14 35 25 43 25 7 0 15 6 18 14 9 23 182 55 352 66 162 10 293 24 330 34 24 6
323 24 550 31 338 12 685 42 805 70 36 8 98 20 138 25 41 6 97 18 125 27 l52
17 -90 14 c-49 7 -99 13 -110 14 -44 0 -61 8 -62 28 -2 20 2 21 90 19 85 -2
286 8 332 17 11 2 88 9 170 15 104 8 152 15 158 24 4 8 21 17 39 20 17 4 49
25 70 46 22 22 44 39 49 39 5 0 9 6 9 14 0 7 8 24 19 37 10 13 26 49 36 79 18
57 116 220 179 300 20 25 36 55 36 68 0 13 11 33 25 46 24 22 67 124 86 201
36 148 49 293 38 420 -5 55 -11 131 -14 168 -7 86 -29 184 -57 245 -11 26 -29
67 -40 92 -11 25 -23 52 -29 60 -5 8 -22 41 -39 72 -16 31 -35 60 -42 65 -7 4
-21 24 -31 43 -18 36 -55 93 -79 120 -38 45 -39 49 -29 68 17 31 -24 61 -100
72 -35 6 -86 17 -114 25 -84 24 -392 46 -775 55 -201 5 -389 13 -419 19 -30 6
-156 16 -280 21 -274 12 -1531 11 -1726 -2z m2839 -714 c3 -9 6 -38 6 -64 0
-39 -4 -52 -20 -60 -14 -7 -19 -17 -15 -29 7 -24 -21 -49 -37 -33 -8 8 -9 18
0 36 9 20 8 26 -6 32 -9 4 -23 6 -30 5 -7 -1 -19 5 -28 14 -17 17 -74 21 -74
4 0 -6 -12 -9 -27 -7 -19 2 -27 8 -25 18 2 8 5 27 6 42 1 15 6 31 10 35 6 6
75 13 207 21 16 1 29 -4 33 -14z m-267 -30 c-3 -3 -12 -4 -19 -1 -8 3 -5 6 6
6 11 1 17 -2 13 -5z m-715 -36 c20 -20 20 -23 7 -47 -12 -22 -13 -30 -2 -51 7
-14 13 -37 13 -52 0 -23 -4 -28 -25 -28 -14 0 -25 5 -25 12 0 6 -9 22 -21 34
-17 18 -19 26 -9 44 9 17 9 25 -3 38 -10 11 -13 28 -10 45 7 34 43 37 75 5z
m828 -55 c0 -5 -7 -17 -15 -27 -14 -19 -15 -19 -15 7 0 17 5 27 15 27 8 0 15
-3 15 -7z m-832 -159 c5 -32 -20 -47 -52 -33 -30 14 -32 22 -10 44 22 22 58
15 62 -11z m64 -34 c-2 -14 -6 -27 -8 -29 -7 -7 -21 12 -29 37 -6 21 -4 23 17
20 18 -2 22 -8 20 -28z m328 -80 c9 -18 8 -20 -15 -20 -23 0 -24 2 -15 20 6
11 13 20 15 20 2 0 9 -9 15 -20z m-317 -17 c-7 -2 -19 -2 -25 0 -7 3 -2 5 12
5 14 0 19 -2 13 -5z m-163 -128 c0 -8 -4 -17 -10 -20 -6 -4 -10 5 -10 20 0 15
4 24 10 20 6 -3 10 -12 10 -20z m26 -81 c4 -13 13 -28 20 -32 8 -4 15 -26 17
-47 2 -37 0 -40 -25 -43 -28 -3 -28 -3 -28 53 0 40 -4 57 -15 61 -8 4 -15 14
-15 24 0 27 39 13 46 -16z m614 -1123 c0 -12 -20 -25 -27 -18 -7 7 6 27 18 27
5 0 9 -4 9 -9z"/>
<path d="M36803 9543 c-17 -6 2 -43 22 -43 16 0 18 9 9 34 -6 17 -11 18 -31 9z"/>
<path d="M36870 9531 c0 -11 21 -19 38 -14 21 8 13 23 -13 23 -14 0 -25 -4
-25 -9z"/>
<path d="M36930 9488 c-54 -15 -55 -24 -6 -38 26 -7 46 -16 46 -20 0 -4 18
-13 39 -20 22 -7 42 -19 45 -26 8 -20 72 -18 80 2 14 37 -6 42 -66 19 -13 -5
-18 -2 -18 9 0 9 5 16 10 16 6 0 10 6 10 14 0 8 -15 17 -36 20 -19 4 -38 14
-41 22 -6 16 -14 16 -63 2z"/>
<path d="M27088 9463 c-25 -4 -26 -7 -16 -26 6 -12 14 -29 18 -37 9 -17 45
-15 77 5 18 12 23 12 34 -1 8 -10 21 -13 43 -8 51 11 78 44 36 44 -12 0 -31 6
-43 13 -21 14 -94 18 -149 10z"/>
<path d="M27365 9450 c3 -5 10 -10 16 -10 5 0 9 5 9 10 0 6 -7 10 -16 10 -8 0
-12 -4 -9 -10z"/>
<path d="M26690 9381 c0 -6 5 -13 10 -16 6 -3 10 1 10 9 0 9 -4 16 -10 16 -5
0 -10 -4 -10 -9z"/>
<path d="M37146 9374 c-24 -24 -20 -30 39 -64 30 -17 55 -38 55 -46 0 -8 8
-18 18 -21 22 -8 57 -43 65 -65 3 -10 12 -18 20 -18 12 0 59 -49 162 -167 17
-19 48 -54 70 -77 22 -24 67 -77 100 -119 33 -42 64 -76 68 -77 13 0 -4 64
-18 73 -8 4 -16 20 -20 36 -3 16 -13 35 -21 42 -8 6 -14 16 -14 21 0 6 -11 24
-25 42 -14 17 -34 41 -43 54 -9 13 -25 31 -34 40 -10 9 -18 22 -18 29 0 7 -7
13 -15 13 -9 0 -18 7 -22 16 -3 10 -20 30 -37 45 -53 49 -86 84 -86 92 0 4 -6
7 -12 7 -7 0 -29 18 -48 40 -19 22 -41 40 -48 40 -7 0 -15 7 -18 15 -4 8 -12
15 -19 15 -6 0 -24 11 -39 25 -32 29 -39 30 -60 9z"/>
<path d="M25434 9346 c-8 -20 4 -104 16 -111 5 -3 12 -27 16 -53 3 -26 16 -57
27 -69 22 -25 57 -31 57 -10 0 7 18 26 40 43 22 16 40 37 40 46 1 67 -176 206
-196 154z"/>
<path d="M38700 9274 c0 -27 14 -25 30 7 9 16 7 19 -10 19 -15 0 -20 -7 -20
-26z"/>
<path d="M27290 9220 c0 -5 5 -10 10 -10 6 0 10 5 10 10 0 6 -4 10 -10 10 -5
0 -10 -4 -10 -10z"/>
<path d="M26795 9200 c-17 -19 -19 -19 -37 -4 -17 16 -19 16 -38 -1 -10 -9
-26 -15 -35 -12 -20 8 -19 -1 2 -27 10 -12 11 -15 3 -8 -8 6 -27 12 -42 12
-18 0 -28 5 -28 15 0 8 -9 15 -20 15 -19 0 -20 -6 -20 -62 1 -35 -2 -277 -5
-538 -10 -817 -5 -1283 14 -1385 32 -167 31 -165 53 -165 12 0 29 -7 38 -15
17 -15 50 -11 50 6 0 20 20 7 35 -21 14 -26 18 -28 35 -18 16 10 23 9 42 -10
59 -57 83 -74 135 -98 57 -27 118 -33 137 -14 20 20 24 162 18 765 -5 622 -4
1110 2 1201 5 73 14 93 44 100 15 4 32 10 37 14 22 17 251 20 1850 26 913 3
1696 8 1740 10 125 8 406 7 448 -1 26 -5 47 -3 63 6 19 10 27 10 36 1 8 -8 63
-12 175 -12 l163 0 6 25 c3 14 15 30 25 36 12 6 19 21 19 41 l0 31 -23 -21
c-13 -12 -27 -22 -32 -22 -5 0 -21 -11 -35 -25 -27 -25 -27 -26 -85 -10 -32 8
-60 17 -63 20 -3 3 -11 0 -19 -6 -8 -7 -26 -9 -46 -5 -113 24 -141 26 -159 9
-17 -15 -20 -15 -42 6 -20 19 -24 20 -36 6 -18 -22 -30 -18 -30 10 0 22 -4 25
-35 25 -19 0 -44 -6 -55 -12 -16 -10 -24 -10 -40 0 -11 6 -32 12 -47 12 -16 0
-42 9 -60 20 -18 10 -35 15 -38 10 -3 -5 -30 -17 -60 -26 l-54 -17 -39 26
c-44 31 -68 34 -93 11 -14 -13 -47 -17 -166 -19 -81 -2 -155 1 -165 6 -12 7
-27 5 -48 -6 -16 -8 -47 -15 -67 -15 -94 1 -161 -7 -190 -23 -40 -21 -73 -22
-120 -2 -31 13 -38 13 -52 2 -12 -11 -49 -14 -161 -12 -87 2 -150 -1 -157 -7
-8 -6 -24 -7 -40 -2 -27 8 -117 12 -287 12 -56 0 -88 5 -112 18 -28 15 -41 16
-90 7 -44 -8 -65 -7 -88 2 -18 8 -50 11 -77 8 -30 -3 -56 0 -75 10 -23 12 -49
14 -111 10 -61 -4 -88 -2 -112 10 -24 12 -37 13 -60 4 -23 -8 -42 -8 -81 2
-28 7 -88 12 -133 10 -45 -1 -99 1 -119 5 -21 5 -165 10 -320 12 -156 2 -373
6 -483 9 -190 4 -200 5 -216 26 -12 16 -23 20 -39 16 -13 -3 -32 -1 -42 4 -15
8 -28 5 -54 -10 -27 -16 -45 -20 -75 -15 -26 4 -39 3 -39 -5 0 -6 -5 -11 -11
-11 -7 0 -9 10 -5 25 5 21 3 25 -17 25 -13 0 -32 -9 -42 -20z m66 -2193 c-8
-8 -11 -7 -11 4 0 20 13 34 18 19 3 -7 -1 -17 -7 -23z"/>
<path d="M23681 9161 c-10 -7 -7 -15 15 -39 16 -16 63 -72 104 -123 41 -51 86
-103 99 -116 23 -22 35 -39 62 -90 7 -13 18 -23 25 -23 7 0 18 -8 23 -17 18
-30 14 19 -4 53 -8 16 -15 37 -15 46 0 10 -8 22 -18 27 -10 5 -30 31 -43 56
-13 26 -39 63 -56 83 -18 20 -33 39 -33 42 0 6 -76 65 -120 93 -15 10 -30 13
-39 8z"/>
<path d="M33807 9116 c-23 -34 -4 -50 35 -30 l30 15 -23 20 c-27 23 -24 24
-42 -5z"/>
<path d="M23353 9013 c-12 -2 -26 -10 -32 -17 -9 -11 -1 -15 35 -20 25 -3 64
-3 86 0 34 6 40 4 45 -15 4 -16 13 -21 40 -21 26 0 36 -5 40 -20 7 -26 43 -27
43 -1 0 10 -15 32 -34 49 -27 23 -41 29 -67 26 -19 -2 -45 0 -59 5 -36 13 -72
18 -97 14z"/>
<path d="M33732 9000 c0 -14 2 -19 5 -12 2 6 2 18 0 25 -3 6 -5 1 -5 -13z"/>
<path d="M32507 8839 c-9 -5 -26 -27 -36 -47 -11 -20 -34 -52 -51 -71 -27 -29
-35 -32 -68 -27 -20 3 -73 8 -118 12 -79 6 -81 6 -107 -21 -47 -52 -47 -140 2
-151 14 -4 37 -13 50 -21 12 -8 52 -19 88 -24 36 -5 74 -16 86 -24 12 -8 42
-15 68 -15 l46 0 5 83 c3 46 12 96 20 113 9 16 18 50 22 76 4 26 11 50 17 53
11 7 12 75 2 75 -5 0 -16 -5 -26 -11z"/>
<path d="M23740 8750 c0 -6 7 -10 15 -10 8 0 15 2 15 4 0 2 -7 6 -15 10 -8 3
-15 1 -15 -4z"/>
<path d="M23820 8624 c0 -8 5 -12 10 -9 6 4 8 11 5 16 -9 14 -15 11 -15 -7z"/>
<path d="M33734 8265 c5 -77 16 -82 16 -7 0 35 -4 62 -10 62 -6 0 -9 -22 -6
-55z"/>
<path d="M33756 8175 c-11 -29 -6 -100 9 -119 20 -26 27 -5 23 69 -3 57 -19
82 -32 50z"/>
<path d="M33950 8153 c11 -16 31 -44 44 -63 36 -55 104 -112 129 -108 18 2 23
11 25 43 3 37 -1 45 -40 80 -43 41 -115 75 -156 75 l-24 0 22 -27z"/>
<path d="M33807 8023 c-12 -11 -7 -67 8 -93 14 -24 14 -23 14 25 1 50 -10 81
-22 68z"/>
<path d="M39620 7910 c-17 -5 3 -8 60 -8 56 0 78 2 65 8 -25 11 -92 11 -125 0z"/>
<path d="M33840 7886 c0 -31 10 -56 21 -56 10 0 12 40 3 64 -9 24 -24 19 -24
-8z"/>
<path d="M39400 7906 c0 -9 30 -14 35 -6 4 6 -3 10 -14 10 -12 0 -21 -2 -21
-4z"/>
<path d="M32540 7805 c0 -53 1 -56 18 -44 9 7 18 14 19 14 4 1 -23 75 -30 81
-4 4 -7 -19 -7 -51z"/>
<path d="M33884 7768 c3 -13 6 -26 6 -30 0 -5 5 -8 10 -8 6 0 10 14 10 30 0
21 -5 30 -16 30 -12 0 -15 -6 -10 -22z"/>
<path d="M34140 7771 c0 -23 28 -54 41 -46 5 4 9 19 9 36 0 24 -4 29 -25 29
-18 0 -25 -5 -25 -19z"/>
<path d="M32605 7741 c-3 -5 -1 -12 5 -16 5 -3 10 1 10 9 0 18 -6 21 -15 7z"/>
<path d="M33924 7694 c3 -9 6 -22 6 -30 0 -8 5 -14 10 -14 6 0 10 14 10 30 0
21 -5 30 -16 30 -11 0 -14 -5 -10 -16z"/>
<path d="M33965 7629 c-7 -19 11 -69 25 -69 5 0 10 -7 10 -15 0 -8 9 -24 20
-35 11 -11 20 -24 20 -29 0 -6 11 -22 25 -37 14 -15 25 -31 25 -35 0 -5 7 -9
15 -9 17 0 20 25 5 35 -6 4 -19 23 -29 44 -11 20 -33 52 -50 70 -17 18 -31 39
-31 45 0 7 -6 21 -14 32 -13 16 -15 17 -21 3z"/>
<path d="M32823 7593 c-13 -2 -23 -7 -23 -11 1 -38 63 -42 68 -4 3 22 0 24
-45 15z"/>
<path d="M32870 7510 c-13 -8 -13 -11 2 -22 14 -11 16 -23 9 -76 l-7 -62 34
-20 c35 -21 41 -55 10 -55 -10 0 -23 -6 -30 -13 -12 -12 -12 -12 35 -16 6 -1
22 -22 34 -48 12 -27 29 -48 37 -48 8 0 18 -5 22 -12 5 -8 1 -9 -12 -5 -16 6
-17 5 -4 -5 8 -7 24 -32 35 -55 14 -31 26 -43 41 -43 39 0 40 44 2 82 -10 10
-18 32 -18 48 0 17 -4 30 -9 30 -4 0 -14 21 -21 48 -7 26 -21 56 -31 67 -21
25 -44 78 -53 129 -4 21 -19 49 -33 62 -14 13 -26 24 -27 24 -1 0 -8 -5 -16
-10z"/>
<path d="M34125 7391 c-7 -13 12 -51 25 -51 6 0 10 8 10 19 0 23 -25 46 -35
32z"/>
<path d="M34210 7280 c0 -11 7 -20 15 -20 13 0 14 4 5 20 -6 11 -13 20 -15 20
-3 0 -5 -9 -5 -20z"/>
<path d="M38215 7233 c-58 -8 -60 -12 -24 -43 43 -37 121 -42 162 -10 14 11
30 20 36 20 6 0 11 7 11 16 0 14 -8 16 -55 11 -30 -3 -57 -1 -60 4 -6 9 -15 9
-70 2z"/>
<path d="M38631 7221 c-62 -16 -84 -32 -61 -46 16 -10 50 4 50 21 0 9 11 14
34 14 19 0 38 5 41 11 11 17 4 17 -64 0z"/>
<path d="M37535 7194 c-23 -7 -59 -10 -92 -7 -45 5 -55 3 -51 -8 2 -7 21 -18
42 -22 40 -10 44 -30 5 -35 -13 -2 -33 -7 -44 -11 -65 -28 -232 -43 -245 -22
-6 11 -8 11 -12 0 -3 -9 -29 -14 -88 -15 -51 -1 -86 -6 -88 -13 -2 -6 -19 -11
-38 -11 -39 0 -68 -12 -101 -43 -29 -26 -29 -35 2 -47 14 -5 25 -14 25 -20 0
-5 11 -10 24 -10 14 0 35 -4 49 -9 28 -11 355 -23 578 -22 111 1 166 5 190 15
47 20 50 25 29 49 -14 14 -17 24 -9 33 7 8 6 13 -3 16 -7 3 5 5 26 6 22 1 42
6 45 11 3 5 15 10 25 12 11 2 21 10 24 18 4 11 -2 13 -26 8 -17 -4 -34 -2 -37
3 -10 16 -65 12 -65 -5 0 -11 -11 -15 -39 -15 -22 0 -44 6 -51 15 -14 17 -70
21 -70 5 0 -5 -9 -10 -20 -10 -13 0 -20 7 -20 20 0 15 7 20 25 20 18 0 28 7
35 25 11 28 35 33 44 10 3 -8 12 -15 21 -15 8 0 15 7 15 15 0 9 9 15 25 15 27
0 34 -17 10 -26 -8 -4 -15 -10 -15 -15 0 -18 36 -7 70 21 20 18 46 30 62 30
15 0 28 4 28 10 0 14 -46 23 -89 17 -21 -2 -44 -1 -52 3 -27 15 -107 17 -144
4z m-665 -220 c0 -8 -7 -14 -15 -14 -15 0 -21 21 -9 33 10 9 24 -2 24 -19z
m820 5 c0 -12 -47 -12 -54 0 -4 5 0 11 6 14 18 5 48 -3 48 -14z"/>
<path d="M37840 7166 c0 -19 6 -24 38 -30 56 -9 72 -7 72 8 0 7 9 16 21 19 40
11 10 23 -60 25 -69 2 -71 1 -71 -22z"/>
<path d="M37762 6951 c-11 -7 -10 -10 3 -15 20 -7 38 1 30 15 -7 11 -16 11
-33 0z"/>
<path d="M40280 6780 c-112 -8 -355 -14 -1217 -31 l-543 -10 -52 -25 c-29 -13
-60 -29 -69 -35 -12 -9 -31 -4 -92 25 l-76 37 -328 1 c-446 1 -420 2 -428 -23
-4 -12 -2 -39 5 -60 10 -29 20 -40 41 -44 15 -3 37 -14 48 -23 11 -9 36 -28
56 -42 19 -14 52 -40 72 -59 21 -18 61 -49 90 -67 28 -19 54 -41 57 -49 3 -8
11 -15 18 -15 6 0 21 -9 32 -19 12 -11 46 -32 76 -46 30 -15 69 -43 87 -61 18
-19 41 -34 52 -34 12 0 21 -4 21 -10 0 -5 5 -10 11 -10 8 0 8 4 0 14 -12 14
-9 36 16 120 5 19 18 19 447 12 242 -4 484 -11 536 -17 52 -5 310 -14 573 -19
264 -5 544 -12 623 -16 l144 -7 0 262 0 261 -47 -1 c-27 -1 -95 -5 -153 -9z"/>
<path d="M31300 6716 l-25 -14 38 -7 c44 -8 67 -2 67 20 0 19 -45 20 -80 1z"/>
<path d="M31450 6702 c0 -6 -3 -17 -6 -26 -9 -23 22 -20 48 4 18 16 19 20 6
20 -9 0 -23 3 -32 6 -9 3 -16 2 -16 -4z"/>
<path d="M12473 6200 c-49 -20 -12 -105 55 -125 28 -8 41 18 21 42 -8 9 -14
32 -14 52 0 39 -19 49 -62 31z"/>
<path d="M17133 5847 c12 -27 82 -71 97 -62 23 14 7 36 -43 60 -66 31 -68 31
-54 2z"/>
<path d="M12372 5708 c-10 -12 -11 -46 -7 -139 3 -68 8 -139 11 -156 5 -33 5
-33 30 -16 20 13 24 22 20 42 -5 21 -4 23 4 9 6 -10 18 -18 27 -18 12 0 14 -7
10 -30 -6 -28 -4 -30 22 -30 18 0 31 6 35 17 5 11 10 13 17 6 7 -7 8 -17 1
-29 -5 -11 -7 -34 -5 -51 5 -31 4 -33 -26 -33 -26 0 -34 5 -42 30 -10 28 -12
29 -33 15 -13 -8 -26 -12 -29 -8 -9 9 -9 -19 1 -32 4 -5 12 -10 17 -11 30 -2
87 -38 96 -61 9 -24 -2 -120 -16 -143 -3 -5 2 -21 11 -35 13 -20 15 -38 10
-93 -9 -80 -9 -96 -5 -280 1 -93 -1 -146 -8 -153 -8 -8 -5 -23 12 -54 14 -23
22 -45 19 -48 -6 -6 -6 -21 -4 -287 0 -91 -2 -219 -4 -285 -6 -140 -7 -175 -4
-212 1 -16 -4 -113 -11 -218 -12 -176 -14 -193 -38 -227 -16 -23 -23 -46 -20
-58 3 -11 0 -26 -7 -33 -29 -29 -46 -67 -61 -137 -9 -41 -27 -96 -41 -122 -17
-32 -23 -55 -18 -72 8 -32 43 -36 51 -6 3 11 9 20 13 20 4 0 19 11 34 25 15
14 31 25 37 25 5 0 31 15 57 33 118 83 77 76 637 108 176 10 614 13 1230 8
138 -2 369 1 515 4 146 4 357 9 470 11 194 4 422 20 452 31 7 3 54 10 103 15
154 18 180 22 190 31 5 5 17 9 27 9 10 0 35 9 55 20 21 11 44 20 52 20 7 0 32
9 55 19 23 11 66 29 96 41 30 12 64 30 75 40 11 9 32 20 48 24 15 3 27 10 27
15 0 5 26 24 57 42 31 18 64 38 72 46 82 67 131 119 169 178 26 39 49 72 53
75 3 3 21 32 38 65 18 32 38 66 45 75 8 8 22 42 32 75 10 33 24 67 31 76 7 8
13 32 13 53 0 20 5 46 11 58 6 11 15 52 19 92 5 39 12 86 16 104 4 21 1 44
-11 67 -10 23 -14 46 -10 65 4 18 2 30 -4 30 -5 0 -19 20 -29 44 -11 24 -25
47 -31 50 -6 4 -11 16 -11 27 0 10 -10 29 -22 41 -15 15 -24 40 -29 78 -3 30
-22 87 -40 125 -31 64 -34 78 -35 170 -2 181 -3 188 -19 181 -17 -6 -30 32
-21 62 5 15 -1 21 -34 31 -35 10 -40 16 -40 41 0 19 -7 34 -20 42 -12 8 -20
24 -20 40 0 20 -8 31 -28 42 -33 17 -57 58 -48 81 3 10 -1 18 -12 21 -40 13
-62 29 -68 48 -8 25 -22 36 -48 36 -10 0 -41 11 -69 25 -68 35 -319 103 -437
120 -25 4 -65 13 -90 22 -70 23 -528 31 -1710 32 -580 0 -1233 4 -1450 7 -350
6 -396 5 -408 -8z"/>
<path d="M19840 5640 c-47 -11 -102 -22 -123 -26 -70 -12 -74 -33 -82 -399 -4
-154 -9 -338 -11 -410 -2 -71 -6 -197 -8 -280 -3 -82 -9 -218 -15 -301 -5 -83
-8 -173 -7 -200 2 -27 -3 -74 -10 -104 -10 -43 -10 -62 -1 -88 14 -41 2 -63
-41 -74 -32 -9 -44 -28 -18 -28 41 0 40 -82 -2 -88 -18 -3 -22 -10 -22 -37 0
-21 -8 -41 -19 -52 -13 -12 -17 -23 -11 -32 5 -9 2 -23 -7 -38 -11 -17 -14
-37 -10 -71 3 -26 1 -68 -3 -94 -5 -26 -12 -141 -15 -255 -3 -114 -8 -216 -11
-225 -4 -15 1 -18 35 -18 23 0 41 5 41 10 0 6 12 16 28 23 15 6 34 19 42 28 8
8 33 21 55 28 22 8 85 33 140 56 55 24 138 51 185 60 120 23 472 34 1260 40
1903 13 2251 21 2390 49 41 9 93 18 115 22 79 12 249 70 266 90 6 8 17 14 23
14 23 1 123 73 208 151 95 87 141 149 201 271 36 72 37 79 24 104 l-15 28 -26
-51 c-28 -56 -66 -116 -94 -149 -9 -11 -28 -33 -42 -50 -14 -16 -50 -49 -80
-74 -30 -25 -56 -48 -58 -52 -2 -5 -12 -8 -22 -8 -28 0 -33 34 -11 71 11 19
36 66 57 104 20 39 39 75 43 80 17 23 51 136 66 220 30 164 20 625 -16 768 -5
20 -14 56 -19 80 -17 68 -76 228 -102 278 -28 51 -44 76 -103 152 -85 110 -96
132 -93 178 2 32 8 45 21 47 13 3 17 -3 17 -27 0 -29 9 -37 35 -31 5 1 18 2
27 3 22 2 23 11 3 27 -8 7 -12 16 -9 21 2 5 -6 11 -19 14 -14 4 -31 21 -40 41
-12 25 -23 34 -41 34 -13 0 -29 7 -36 14 -6 8 -36 20 -66 27 -30 7 -57 16 -60
21 -3 4 -35 8 -72 8 -37 0 -98 5 -137 11 -38 6 -131 12 -205 14 -74 2 -209 6
-300 9 -376 13 -484 16 -670 21 -107 3 -235 7 -285 10 -236 14 -611 25 -910
26 -181 0 -472 7 -645 15 -434 18 -584 17 -690 -6z"/>
<path d="M24050 5306 c0 -8 8 -17 18 -21 9 -3 28 -21 42 -41 14 -20 43 -57 66
-83 62 -73 98 -122 100 -138 1 -8 11 -26 21 -40 10 -14 23 -34 28 -43 6 -10
16 -24 22 -31 5 -8 13 -27 17 -44 4 -16 14 -37 22 -46 7 -8 20 -33 28 -55 13
-33 15 -35 16 -14 5 64 -5 101 -46 178 -25 45 -54 93 -65 105 -11 12 -26 29
-34 38 -8 9 -15 20 -15 26 0 6 -20 37 -45 69 -25 31 -45 63 -45 70 0 17 -49
54 -71 54 -11 0 -18 5 -16 11 1 6 -8 13 -20 15 -15 3 -23 -1 -23 -10z"/>
<path d="M16914 5055 c19 -14 36 -12 36 6 0 5 -12 9 -27 9 -27 -1 -27 -1 -9
-15z"/>
<path d="M24490 4397 c0 -48 4 -87 9 -87 11 0 9 156 -2 167 -4 3 -7 -33 -7
-80z"/>
<path d="M37771 4364 c0 -11 3 -14 6 -6 3 7 2 16 -1 19 -3 4 -6 -2 -5 -13z"/>
<path d="M17291 3464 c0 -11 3 -14 6 -6 3 7 2 16 -1 19 -3 4 -6 -2 -5 -13z"/>
<path d="M17435 3427 c-19 -10 -19 -10 0 -17 22 -8 45 -2 45 10 0 14 -26 18
-45 7z"/>
<path d="M17370 3376 c0 -22 17 -28 24 -10 9 22 8 24 -9 24 -8 0 -15 -6 -15
-14z"/>
<path d="M33407 3303 c-8 -14 12 -53 27 -53 13 0 13 4 0 30 -16 32 -20 35 -27
23z"/>
<path d="M34645 2661 c-71 -16 190 -27 285 -12 42 6 40 7 -40 14 -100 8 -203
7 -245 -2z"/>
<path d="M19382 2536 c-112 -56 -135 -79 -130 -129 3 -27 9 -34 43 -45 54 -18
416 -22 505 -6 36 7 109 16 163 19 89 7 97 9 97 28 0 34 28 57 62 50 24 -5 30
-3 26 8 -3 10 -29 15 -87 19 -64 4 -86 9 -96 23 -8 11 -23 17 -43 15 -16 -1
-37 3 -45 10 -11 10 -21 10 -40 1 -31 -14 -77 -4 -77 16 0 8 -9 15 -20 15 -11
0 -20 -4 -20 -10 0 -12 -37 -13 -44 -1 -3 4 -16 6 -29 4 -12 -3 -47 5 -77 16
-30 12 -62 20 -70 20 -8 -1 -61 -25 -118 -53z"/>
<path d="M26590 2545 c-36 -7 -56 -13 -44 -14 12 -1 26 -12 33 -27 14 -31 8
-44 -19 -37 -14 4 -27 -3 -41 -21 -17 -22 -24 -24 -35 -15 -11 9 -21 9 -40 0
-15 -6 -34 -9 -44 -6 -13 4 -31 -7 -61 -37 l-42 -43 114 -3 c63 -2 130 1 149
7 19 5 63 12 98 16 34 4 65 11 68 16 9 15 56 10 76 -7 25 -23 50 -2 46 39 -3
35 17 48 27 18 4 -15 15 -21 36 -21 24 0 29 4 29 25 0 18 5 25 20 25 13 0 20
7 20 20 0 15 7 20 24 20 30 0 42 16 26 35 -16 19 -54 19 -70 0 -7 -8 -9 -15
-4 -15 18 -1 -59 -30 -78 -30 -16 0 -18 3 -9 14 15 18 3 48 -18 42 -61 -18
-107 -17 -181 6 -8 3 -44 -1 -80 -7z m0 -105 c0 -5 -4 -10 -10 -10 -5 0 -10 5
-10 10 0 6 5 10 10 10 6 0 10 -4 10 -10z"/>
<path d="M30815 2530 c3 -5 15 -10 26 -10 10 0 19 5 19 10 0 6 -12 10 -26 10
-14 0 -23 -4 -19 -10z"/>
<path d="M27124 2504 c3 -9 6 -23 6 -32 0 -13 4 -11 16 6 17 24 11 42 -13 42
-10 0 -13 -6 -9 -16z"/>
<path d="M26328 2503 c6 -2 18 -2 25 0 6 3 1 5 -13 5 -14 0 -19 -2 -12 -5z"/>
<path d="M27037 2474 c-3 -4 0 -21 7 -38 7 -17 11 -37 9 -43 -3 -8 5 -13 22
-13 14 0 24 4 21 9 -3 5 1 14 9 21 23 19 18 44 -12 58 -30 13 -46 15 -56 6z"/>
<path d="M20285 2460 c-3 -5 1 -10 9 -10 8 0 18 5 21 10 3 6 -1 10 -9 10 -8 0
-18 -4 -21 -10z"/>
<path d="M27210 2460 c0 -5 7 -10 15 -10 8 0 15 5 15 10 0 6 -7 10 -15 10 -8
0 -15 -4 -15 -10z"/>
<path d="M37285 2430 c-3 -5 1 -10 9 -10 9 0 16 5 16 10 0 6 -4 10 -9 10 -6 0
-13 -4 -16 -10z"/>
<path d="M37218 2383 c6 -2 18 -2 25 0 6 3 1 5 -13 5 -14 0 -19 -2 -12 -5z"/>
</g>
</svg>
